<svg width="26" height="26" viewBox="0 0 26 26" fill="none" xmlns="http://www.w3.org/2000/svg">
<path d="M6.5 23.8333H22.75V21.6667H6.513C6.0125 21.6537 5.41667 21.4554 5.41667 20.5833C5.41667 19.7113 6.0125 19.513 6.513 19.5H22.75V4.33334C22.75 3.13842 21.7783 2.16667 20.5833 2.16667H6.5C5.1935 2.16667 3.25 3.03226 3.25 5.41667V20.5833C3.25 22.9678 5.1935 23.8333 6.5 23.8333ZM5.41667 8.66667V5.41667C5.41667 4.54459 6.0125 4.34634 6.5 4.33334H20.5833V17.3333H5.41667V8.66667Z" fill="white"/>
<path d="M8.66666 6.5H18.4167V8.66667H8.66666V6.5Z" fill="white"/>
</svg>
