<svg width="26" height="26" viewBox="0 0 26 26" fill="none" xmlns="http://www.w3.org/2000/svg">
<path d="M1.08334 3.25V5.41667H24.9167V3.25C24.9164 2.67545 24.688 2.12452 24.2818 1.71825C23.8755 1.31199 23.3246 1.08362 22.75 1.08334H3.25001C2.67546 1.08362 2.12453 1.31199 1.71826 1.71825C1.312 2.12452 1.08363 2.67545 1.08334 3.25ZM4.34093 4.342C4.12662 4.34222 3.91706 4.27886 3.73876 4.15995C3.56047 4.04105 3.42145 3.87193 3.33929 3.67399C3.25712 3.47606 3.23552 3.2582 3.27719 3.04799C3.31887 2.83777 3.42196 2.64464 3.57343 2.49302C3.72489 2.34141 3.91792 2.23812 4.1281 2.19623C4.33827 2.15434 4.55615 2.17573 4.75417 2.2577C4.95218 2.33966 5.12144 2.47851 5.24053 2.65669C5.35961 2.83487 5.42318 3.04436 5.42318 3.25867C5.42318 3.54599 5.30904 3.82154 5.10588 4.0247C4.90271 4.22787 4.62716 4.342 4.33984 4.342H4.34093ZM7.58768 4.34092C7.37341 4.34092 7.16396 4.27738 6.98581 4.15834C6.80766 4.03931 6.6688 3.87011 6.58681 3.67216C6.50481 3.47421 6.48336 3.25638 6.52516 3.04624C6.56696 2.83609 6.67014 2.64306 6.82164 2.49155C6.97315 2.34005 7.16618 2.23687 7.37633 2.19507C7.58647 2.15327 7.8043 2.17472 8.00225 2.25672C8.2002 2.33871 8.3694 2.47756 8.48844 2.65572C8.60747 2.83387 8.67101 3.04332 8.67101 3.25759C8.67044 3.54473 8.55612 3.81994 8.35308 4.02299C8.15004 4.22603 7.87482 4.34035 7.58768 4.34092V4.34092Z" fill="white"/>
<path d="M1.08334 6.5V21.6667C1.08334 22.2413 1.31162 22.7924 1.71795 23.1987C2.12427 23.6051 2.67537 23.8333 3.25001 23.8333H22.75C23.3246 23.8333 23.8757 23.6051 24.2821 23.1987C24.6884 22.7924 24.9167 22.2413 24.9167 21.6667V6.5H1.08334ZM22.75 21.6667H3.25001V8.66667H22.75V21.6667Z" fill="white"/>
<path d="M9.74999 19.5L10.5083 18.7417L11.2667 17.9833L9.85832 16.575L8.44999 15.1667L9.85832 13.7583L11.2667 12.35L10.5083 11.5917L9.74999 10.8333L7.58332 13L5.41666 15.1667L7.58332 17.3333L9.74999 19.5Z" fill="white"/>
<path d="M14.7333 17.9833L15.4917 18.7417L16.25 19.5L18.4167 17.3333L20.5833 15.1667L18.4167 13L16.25 10.8333L15.4917 11.5917L14.7333 12.35L16.1417 13.7583L17.55 15.1667L16.1417 16.575L14.7333 17.9833V17.9833Z" fill="white"/>
<path d="M9.74999 19.5L10.5083 18.7417L11.2667 17.9833L9.85832 16.575L8.44999 15.1667L9.85832 13.7583L11.2667 12.35L10.5083 11.5917L9.74999 10.8333L7.58332 13L5.41666 15.1667L7.58332 17.3333L9.74999 19.5Z" fill="white"/>
<path d="M14.7333 17.9833L15.4917 18.7417L16.25 19.5L18.4167 17.3333L20.5833 15.1667L18.4167 13L16.25 10.8333L15.4917 11.5917L14.7333 12.35L16.1417 13.7583L17.55 15.1667L16.1417 16.575L14.7333 17.9833V17.9833Z" fill="white"/>
</svg>
