<svg width="58" height="59" viewBox="0 0 58 59" fill="none" xmlns="http://www.w3.org/2000/svg">
<g clip-path="url(#clip0_0_168)">
<path d="M57.2607 5.30078C57.2607 2.43686 55.0176 0.115234 52.2505 0.115234H5.26605C2.49898 0.115234 0.255859 2.43686 0.255859 5.30078V15.6719L1.36923 16.8242H56.1473C56.5821 16.3742 56.8259 16.1219 57.2607 15.6719V5.30078Z" fill="#0052C2"/>
<path d="M57.2607 5.30078V15.6719C56.8254 16.1224 56.5827 16.3737 56.1473 16.8242H28.7583V0.115234H52.2505C55.0173 0.115234 57.2607 2.43721 57.2607 5.30078Z" fill="#003481"/>
<path d="M0.255859 15.6719V46.7852C0.255859 49.6445 2.50343 51.9707 5.26605 51.9707H52.2505C55.0131 51.9707 57.2607 49.6445 57.2607 46.7852V15.6719H0.255859Z" fill="#E0F4FF"/>
<path d="M57.2607 15.6719V46.7852C57.2607 49.6441 55.0128 51.9707 52.2505 51.9707H28.7583V15.6719H57.2607Z" fill="#B8E0F5"/>
<path d="M22.0779 34.6855H8.71743C7.79511 34.6855 7.04736 35.4595 7.04736 36.4141V43.3281C7.04736 44.2827 7.79511 45.0566 8.71743 45.0566H22.0779C23.0003 45.0566 23.748 44.2827 23.748 43.3281V36.4141C23.748 35.4595 23.0003 34.6855 22.0779 34.6855Z" fill="#FFDA2D"/>
<path d="M38.7786 20.8574H8.71743C7.79511 20.8574 7.04736 21.6313 7.04736 22.5859C7.04736 23.5405 7.79511 24.3145 8.71743 24.3145H38.7786C39.7009 24.3145 40.4486 23.5405 40.4486 22.5859C40.4486 21.6313 39.7009 20.8574 38.7786 20.8574Z" fill="#00B8F0"/>
<path d="M40.4487 22.5859C40.4487 23.5401 39.7006 24.3145 38.7787 24.3145H28.7583V20.8574H38.7787C39.7006 20.8574 40.4487 21.6318 40.4487 22.5859Z" fill="#0097F0"/>
<path d="M32.0983 27.7715H8.71743C7.79511 27.7715 7.04736 28.5454 7.04736 29.5C7.04736 30.4546 7.79511 31.2285 8.71743 31.2285H32.0983C33.0206 31.2285 33.7684 30.4546 33.7684 29.5C33.7684 28.5454 33.0206 27.7715 32.0983 27.7715Z" fill="#00B8F0"/>
<path d="M33.7685 29.5C33.7685 30.4541 33.0203 31.2285 32.0984 31.2285H28.7583V27.7715H32.0984C33.0203 27.7715 33.7685 28.5459 33.7685 29.5Z" fill="#0097F0"/>
<path d="M50.4692 38.1426V57.1562C50.4692 58.1109 49.7214 58.8848 48.7991 58.8848H35.4386C34.5163 58.8848 33.7686 58.1109 33.7686 57.1562V38.1426L34.8819 36.9902H49.3558L50.4692 38.1426Z" fill="#FF641A"/>
<path d="M50.469 38.1426V57.1562C50.469 58.1104 49.7208 58.8848 48.7989 58.8848H42.1187V36.9902H49.3556L50.469 38.1426Z" fill="#F03800"/>
<path d="M43.9002 38.1426V58.8848H40.5601V38.1426L41.6734 36.9902H42.7868L43.9002 38.1426Z" fill="#0052C2"/>
<path d="M43.9 38.1426V58.8848H42.1187V36.9902H42.7867L43.9 38.1426Z" fill="#003481"/>
<path d="M8.71743 10.4863C9.63978 10.4863 10.3875 9.71245 10.3875 8.75781C10.3875 7.80318 9.63978 7.0293 8.71743 7.0293C7.79508 7.0293 7.04736 7.80318 7.04736 8.75781C7.04736 9.71245 7.79508 10.4863 8.71743 10.4863Z" fill="#8AFA42"/>
<path d="M15.3976 10.4863C16.32 10.4863 17.0677 9.71245 17.0677 8.75781C17.0677 7.80318 16.32 7.0293 15.3976 7.0293C14.4753 7.0293 13.7275 7.80318 13.7275 8.75781C13.7275 9.71245 14.4753 10.4863 15.3976 10.4863Z" fill="#FDBF00"/>
<path d="M22.0778 10.4863C23.0001 10.4863 23.7478 9.71245 23.7478 8.75781C23.7478 7.80318 23.0001 7.0293 22.0778 7.0293C21.1554 7.0293 20.4077 7.80318 20.4077 8.75781C20.4077 9.71245 21.1554 10.4863 22.0778 10.4863Z" fill="#F03800"/>
<path d="M48.7988 7.0293H38.7785C37.8561 7.0293 37.1084 7.80321 37.1084 8.75781C37.1084 9.71241 37.8561 10.4863 38.7785 10.4863H48.7988C49.7212 10.4863 50.4689 9.71241 50.4689 8.75781C50.4689 7.80321 49.7212 7.0293 48.7988 7.0293Z" fill="#0052C2"/>
<path d="M43.5085 26.8128C42.8495 25.7896 41.3908 25.7857 40.7293 26.8128L34.049 37.1839C33.8661 37.4678 33.7686 37.8014 33.7686 38.1426H50.4692C50.4692 37.8014 50.3717 37.4678 50.1887 37.1839L43.5085 26.8128Z" fill="#FFDA2D"/>
<path d="M50.469 38.1426H42.1187V26.0441C42.6486 26.0441 43.1786 26.3011 43.5081 26.8127L50.1884 37.1838C50.371 37.4673 50.469 37.8015 50.469 38.1426V38.1426Z" fill="#FDBF00"/>
</g>
<defs>
<clipPath id="clip0_0_168">
<rect width="57.0048" height="59" fill="white" transform="translate(0.255859)"/>
</clipPath>
</defs>
</svg>
