<svg width="26" height="26" viewBox="0 0 26 26" fill="none" xmlns="http://www.w3.org/2000/svg">
<path d="M9.08305 2.6857C9.6519 2.51418 10.2623 2.54268 10.8128 2.76644C11.3632 2.99019 11.8203 3.39572 12.1081 3.9155L12.2056 4.1092L13.0649 6.0215C13.3261 6.60193 13.4109 7.24633 13.3087 7.87457C13.2066 8.5028 12.922 9.08713 12.4903 9.5549L12.3187 9.7265L10.9615 10.9914C10.7171 11.2228 10.9004 12.1185 11.7857 13.6499C12.58 15.0279 13.2287 15.6714 13.5459 15.7065H13.6018L13.6707 15.6935L16.3357 14.8784C16.6939 14.7686 17.0761 14.7642 17.4367 14.8659C17.7973 14.9675 18.1209 15.1709 18.3689 15.4517L18.4885 15.6012L20.2513 18.0452C20.5973 18.5241 20.7698 19.1065 20.7405 19.6965C20.7112 20.2866 20.4818 20.849 20.0901 21.2913L19.9315 21.4551L19.2256 22.1233C18.5929 22.7225 17.8015 23.1274 16.9453 23.2899C16.0892 23.4523 15.2044 23.3655 14.3961 23.0398C11.8806 22.0258 9.59525 19.7092 7.51915 16.1134C5.43915 12.5085 4.57465 9.3664 4.96075 6.6754C5.0777 5.8618 5.41286 5.09507 5.93062 4.45668C6.44838 3.81829 7.12941 3.33208 7.90135 3.0497L8.15225 2.9665L9.08305 2.6857V2.6857Z" fill="white"/>
</svg>
