<svg width="100" height="100" viewBox="0 0 100 100" fill="none" xmlns="http://www.w3.org/2000/svg">
<g clip-path="url(#clip0_672_193)">
<rect width="100" height="100" rx="50" fill="white"/>
<path d="M50.2222 0.233398C40.3331 0.233398 30.6661 3.16585 22.4437 8.65992C14.2212 14.154 7.81259 21.9629 4.02821 31.0992C0.243832 40.2355 -0.746334 50.2889 1.18293 59.9879C3.11219 69.6869 7.87422 78.5961 14.8668 85.5887C21.8595 92.5813 30.7686 97.3434 40.4677 99.2726C50.1667 101.202 60.22 100.212 69.3563 96.4274C78.4926 92.643 86.3016 86.2343 91.7957 78.0119C97.2897 69.7894 100.222 60.1225 100.222 50.2334C100.222 36.9726 94.9543 24.2549 85.5775 14.8781C76.2007 5.50124 63.483 0.233398 50.2222 0.233398V0.233398ZM45.8472 21.1709C45.8472 20.0106 46.3081 18.8978 47.1286 18.0773C47.9491 17.2568 49.0619 16.7959 50.2222 16.7959C51.3825 16.7959 52.4953 17.2568 53.3158 18.0773C54.1362 18.8978 54.5972 20.0106 54.5972 21.1709V58.6709C54.5972 59.8312 54.1362 60.944 53.3158 61.7645C52.4953 62.5849 51.3825 63.0459 50.2222 63.0459C49.0619 63.0459 47.9491 62.5849 47.1286 61.7645C46.3081 60.944 45.8472 59.8312 45.8472 58.6709V21.1709ZM50.2222 83.0459C49.1097 83.0459 48.0221 82.716 47.0971 82.0979C46.1721 81.4798 45.4511 80.6013 45.0254 79.5735C44.5996 78.5456 44.4882 77.4146 44.7053 76.3235C44.9223 75.2324 45.458 74.2301 46.2447 73.4434C47.0314 72.6567 48.0337 72.121 49.1248 71.904C50.2159 71.6869 51.3469 71.7983 52.3748 72.2241C53.4026 72.6498 54.2811 73.3708 54.8992 74.2958C55.5173 75.2208 55.8472 76.3084 55.8472 77.4209C55.8472 78.9127 55.2545 80.3435 54.1997 81.3984C53.1448 82.4532 51.714 83.0459 50.2222 83.0459Z" fill="#DF0000"/>
</g>
<defs>
<clipPath id="clip0_672_193">
<rect width="100" height="100" rx="50" fill="white"/>
</clipPath>
</defs>
</svg>
