<svg width="64" height="20" viewBox="0 0 64 20" fill="none" xmlns="http://www.w3.org/2000/svg">
<g clip-path="url(#clip0_0_687)">
<path d="M0.973889 14.9999V7.89732H9.70041V7.48187H0.973889V1.00227H10.2521V0.586945H0.565186V15.4152H10.3338V14.9999H0.974011H0.973889ZM18.2021 4.74048L14.5849 9.57945L11.0492 4.7406H10.5178L14.3395 9.89107L10.1498 15.4151H10.6404L14.5846 10.2023L18.5494 15.4151H19.0602L14.8503 9.89082L18.6924 4.74035H18.202L18.2021 4.74048ZM20.2866 19.0704V12.4248H20.3274C20.5728 13.3939 21.0564 14.1727 21.7785 14.7612C22.5006 15.3495 23.4202 15.6438 24.5374 15.6438C25.2595 15.6438 25.8999 15.495 26.4585 15.1973C27.0171 14.8997 27.4837 14.4947 27.8584 13.9824C28.233 13.4701 28.5192 12.8748 28.7168 12.1963C28.9142 11.518 29.0131 10.8049 29.0131 10.0573C29.0131 9.25424 28.9108 8.51345 28.7065 7.83512C28.5021 7.15666 28.2058 6.56819 27.8175 6.06985C27.4292 5.57138 26.9592 5.1836 26.4073 4.90688C25.8556 4.62991 25.2322 4.49143 24.5374 4.49143C24.006 4.49143 23.5122 4.57108 23.0558 4.73025C22.5993 4.88955 22.1941 5.11442 21.8398 5.40522C21.4835 5.69826 21.1734 6.04492 20.9201 6.4332C20.6613 6.82784 20.4637 7.26049 20.3274 7.73129H20.2866V4.74048H19.8779V19.0704H20.2866ZM24.5374 15.2491C23.2568 15.2491 22.228 14.8026 21.4515 13.9096C20.6749 13.0166 20.2866 11.7324 20.2866 10.0571C20.2866 9.3648 20.382 8.70716 20.5728 8.08417C20.7635 7.46117 21.0394 6.91422 21.4003 6.44355C21.7614 5.97275 22.2077 5.59893 22.7389 5.32208C23.2703 5.04512 23.8699 4.90663 24.5374 4.90663C25.2186 4.90663 25.8148 5.04512 26.3256 5.32208C26.8365 5.59893 27.2589 5.97624 27.5927 6.45389C27.9265 6.93154 28.1785 7.4785 28.3489 8.09451C28.5192 8.71065 28.6043 9.3648 28.6043 10.0571C28.6043 10.6802 28.526 11.2998 28.3693 11.9159C28.2126 12.532 27.9707 13.0858 27.6437 13.5774C27.3168 14.0688 26.898 14.4703 26.387 14.7819C25.876 15.0934 25.2595 15.2491 24.5374 15.2491ZM31.2611 15.4152V9.37178C31.2611 8.7903 31.3428 8.22253 31.5064 7.66884C31.6698 7.11503 31.9219 6.6269 32.2625 6.20472C32.6031 5.78241 33.0356 5.4501 33.5602 5.20778C34.0847 4.96547 34.7081 4.86512 35.4302 4.90663V4.4913C34.8034 4.47759 34.2551 4.54665 33.7851 4.69897C33.3149 4.85129 32.9097 5.05895 32.569 5.32208C32.2284 5.58509 31.956 5.8931 31.7516 6.24623C31.5474 6.59879 31.3959 6.98022 31.3019 7.37803H31.2611V4.74048H30.8524V15.4154H31.2611V15.4152ZM35.9411 10.1609H44.7288C44.7562 9.42713 44.6846 8.72112 44.5143 8.04266C44.344 7.3642 44.0715 6.7619 43.6969 6.23588C43.3221 5.70974 42.8385 5.28743 42.2458 4.96896C41.6531 4.65048 40.9481 4.4913 40.1306 4.4913C39.5447 4.4913 38.9725 4.61595 38.4139 4.86525C37.8553 5.11442 37.3648 5.47777 36.9425 5.95542C36.5201 6.43307 36.1795 7.01805 35.9207 7.71047C35.6619 8.40264 35.5324 9.19179 35.5324 10.0779C35.5324 10.8671 35.6209 11.6044 35.798 12.2897C35.9752 12.975 36.2476 13.5704 36.6155 14.0758C36.9834 14.5811 37.4569 14.9722 38.0359 15.2491C38.6148 15.526 39.3131 15.6575 40.1306 15.6437C41.3295 15.6437 42.3378 15.3009 43.1552 14.6157C43.9727 13.9303 44.4564 12.9646 44.6063 11.7185H44.1976C44.0204 12.8955 43.5673 13.7781 42.8385 14.3664C42.1095 14.9549 41.1934 15.2491 40.0897 15.2491C39.3403 15.2491 38.7068 15.1176 38.1891 14.8546C37.6714 14.5916 37.249 14.2314 36.922 13.7746C36.5951 13.3177 36.3532 12.7812 36.1966 12.165C36.0398 11.549 35.9547 10.8809 35.9411 10.1609ZM44.3201 9.7456H35.9412C35.9819 8.99796 36.1182 8.32648 36.3498 7.73116C36.5815 7.13572 36.8846 6.6269 37.2593 6.20472C37.6339 5.78241 38.07 5.46057 38.5672 5.23894C39.0645 5.01744 39.5993 4.90663 40.1715 4.90663C40.8527 4.90663 41.4521 5.03477 41.9699 5.29092C42.4876 5.54707 42.9202 5.89671 43.2677 6.33971C43.615 6.78271 43.8773 7.29851 44.0544 7.88685C44.2315 8.47531 44.3201 9.09494 44.3201 9.7456ZM53.2101 7.89732H53.6188C53.6188 6.70655 53.2782 5.84124 52.5971 5.30127C51.9157 4.76129 50.9893 4.4913 49.8176 4.4913C49.1636 4.4913 48.6119 4.57444 48.1622 4.7406C47.7126 4.90663 47.3448 5.12128 47.0586 5.38428C46.7726 5.64729 46.5682 5.9381 46.4456 6.25657C46.3229 6.57505 46.2616 6.87969 46.2616 7.17037C46.2616 7.75185 46.3637 8.21567 46.5682 8.56182C46.7726 8.90797 47.0927 9.17795 47.5286 9.37178C47.8284 9.51014 48.1689 9.63479 48.5505 9.74573C48.932 9.85642 49.3748 9.97408 49.8789 10.0986C50.3285 10.2095 50.7713 10.3202 51.2073 10.4309C51.6433 10.5417 52.0282 10.6906 52.3619 10.8774C52.6958 11.0644 52.9682 11.3032 53.1795 11.594C53.3906 11.8847 53.4962 12.2655 53.4962 12.7362C53.4962 13.1931 53.3907 13.5808 53.1795 13.8991C52.97 14.216 52.6944 14.4819 52.3722 14.6781C52.0452 14.8787 51.6807 15.0241 51.2788 15.1141C50.8769 15.2041 50.4852 15.2491 50.1038 15.2491C48.8639 15.2491 47.9135 14.9687 47.2528 14.4081C46.592 13.8473 46.2617 12.9646 46.2617 11.76H45.8529C45.8529 13.1031 46.2105 14.0861 46.9258 14.7092C47.6411 15.3322 48.7004 15.6437 50.1038 15.6437C50.5533 15.6437 51.0063 15.5917 51.4628 15.4879C51.9191 15.3841 52.328 15.2145 52.6889 14.9791C53.0469 14.747 53.3475 14.4344 53.5677 14.0654C53.7925 13.6915 53.905 13.2346 53.905 12.6947C53.905 12.1824 53.8061 11.767 53.6087 11.4485C53.411 11.1302 53.1522 10.8671 52.832 10.6594C52.5118 10.4517 52.1508 10.2891 51.7489 10.1714C51.3447 10.053 50.9393 9.93877 50.5328 9.82862C50.0326 9.69525 49.5319 9.56375 49.0307 9.43411C48.6017 9.32329 48.2031 9.19179 47.8353 9.03947C47.481 8.88715 47.1983 8.66914 46.9871 8.38532C46.7759 8.10149 46.6704 7.69651 46.6704 7.17037C46.6704 7.07352 46.6976 6.90038 46.7521 6.65121C46.8065 6.40191 46.9361 6.14925 47.1404 5.8931C47.3448 5.63707 47.658 5.40859 48.0805 5.20778C48.5028 5.0071 49.0819 4.90663 49.8176 4.90663C50.3217 4.90663 50.7815 4.9621 51.197 5.07279C51.6126 5.1836 51.9703 5.3601 52.2699 5.60242C52.5697 5.84473 52.8013 6.15274 52.9648 6.52656C53.1283 6.90051 53.2101 7.35734 53.2101 7.89732ZM62.6722 7.89732H63.0809C63.0809 6.70655 62.7404 5.84124 62.0592 5.30127C61.3779 4.76129 60.4515 4.4913 59.2797 4.4913C58.6258 4.4913 58.074 4.57444 57.6244 4.7406C57.1747 4.90663 56.8069 5.12128 56.5208 5.38428C56.2347 5.64729 56.0303 5.9381 55.9077 6.25657C55.785 6.57505 55.7238 6.87969 55.7238 7.17037C55.7238 7.75185 55.826 8.21567 56.0305 8.56182C56.2347 8.90797 56.5549 9.17795 56.9909 9.37178C57.2907 9.51014 57.6312 9.63479 58.0126 9.74573C58.3941 9.85642 58.8369 9.97408 59.341 10.0986C59.7907 10.2095 60.2335 10.3202 60.6695 10.4309C61.1055 10.5417 61.4903 10.6906 61.8242 10.8774C62.1579 11.0644 62.4305 11.3032 62.6416 11.594C62.8528 11.8847 62.9584 12.2655 62.9584 12.7362C62.9584 13.1931 62.8528 13.5808 62.6416 13.8991C62.4322 14.2159 62.1566 14.4819 61.8345 14.6781C61.5073 14.8787 61.1429 15.0241 60.741 15.1141C60.3391 15.2041 59.9474 15.2491 59.5659 15.2491C58.326 15.2491 57.3758 14.9687 56.715 14.4081C56.0541 13.8473 55.7238 12.9646 55.7238 11.76H55.3151C55.3151 13.1031 55.6726 14.0861 56.388 14.7092C57.1032 15.3322 58.1625 15.6437 59.5659 15.6437C60.0156 15.6437 60.4685 15.5917 60.925 15.4879C61.3812 15.3841 61.7901 15.2145 62.1512 14.9791C62.5091 14.747 62.8098 14.4344 63.0299 14.0654C63.2548 13.6915 63.3671 13.2346 63.3671 12.6947C63.3671 12.1824 63.2684 11.767 63.0708 11.4485C62.8733 11.1302 62.6145 10.8671 62.2942 10.6594C61.9741 10.4517 61.613 10.2891 61.2111 10.1714C60.8069 10.053 60.4015 9.93877 59.9951 9.82862C59.4948 9.69525 58.9941 9.56375 58.493 9.43411C58.0638 9.32329 57.6653 9.19179 57.2974 9.03947C56.9432 8.88715 56.6604 8.66914 56.4493 8.38532C56.2381 8.10149 56.1325 7.69651 56.1325 7.17037C56.1325 7.07352 56.1597 6.90038 56.2143 6.65121C56.2688 6.40191 56.3983 6.14925 56.6025 5.8931C56.8069 5.63707 57.1203 5.40859 57.5426 5.20778C57.965 5.0071 58.544 4.90663 59.2798 4.90663C59.784 4.90663 60.2437 4.9621 60.6593 5.07279C61.0748 5.1836 61.4324 5.3601 61.7322 5.60242C62.032 5.84473 62.2635 6.15274 62.427 6.52656C62.5906 6.90051 62.6724 7.35734 62.6724 7.89732H62.6722Z" fill="#222222"/>
</g>
<defs>
<clipPath id="clip0_0_687">
<rect width="62.8019" height="18.5726" fill="white" transform="translate(0.565186 0.586945)"/>
</clipPath>
</defs>
</svg>
