<svg width="22" height="22" viewBox="0 0 22 22" fill="none" xmlns="http://www.w3.org/2000/svg">
<g clip-path="url(#clip0_0_382)">
<path fill-rule="evenodd" clip-rule="evenodd" d="M0.788086 11.1565C0.788086 16.2572 4.46457 20.4987 9.27293 21.3588V13.9489H6.72748V11.0993H9.27293V8.81908C9.27293 6.2542 10.9131 4.82983 13.2328 4.82983C13.9676 4.82983 14.7601 4.94354 15.4949 5.05725V7.67942H14.1941C12.9494 7.67942 12.6669 8.3061 12.6669 9.10464V11.0993H15.382L14.9298 13.9489H12.6669V21.3588C17.4752 20.4987 21.1517 16.2581 21.1517 11.1565C21.1517 5.48216 16.5699 0.839722 10.9699 0.839722C5.3699 0.839722 0.788086 5.48216 0.788086 11.1565Z" fill="#090A13"/>
</g>
<defs>
<clipPath id="clip0_0_382">
<rect width="20.3636" height="20.5191" fill="white" transform="translate(0.788086 0.839722)"/>
</clipPath>
</defs>
</svg>
