<svg width="58" height="59" viewBox="0 0 58 59" fill="none" xmlns="http://www.w3.org/2000/svg">
<g clip-path="url(#clip0_0_657)">
<path d="M38.4671 38.931C43.7143 38.931 47.9679 34.6275 47.9679 29.3188C47.9679 24.0102 43.7143 19.7067 38.4671 19.7067C33.22 19.7067 28.9663 24.0102 28.9663 29.3188C28.9663 34.6275 33.22 38.931 38.4671 38.931Z" fill="#19BCFE"/>
<path fill-rule="evenodd" clip-rule="evenodd" d="M19.4654 58.1552C21.9852 58.1552 24.4017 57.1425 26.1835 55.3399C27.9652 53.5373 28.9662 51.0924 28.9662 48.5431V38.931H19.4654C16.9456 38.931 14.5291 39.9437 12.7473 41.7463C10.9656 43.5489 9.9646 45.9938 9.9646 48.5431C9.9646 51.0924 10.9656 53.5373 12.7473 55.3399C14.5291 57.1425 16.9456 58.1552 19.4654 58.1552Z" fill="#09CF83"/>
<path fill-rule="evenodd" clip-rule="evenodd" d="M19.4654 38.931H28.9662V19.7067H19.4654C16.9456 19.7067 14.5291 20.7194 12.7473 22.522C10.9656 24.3246 9.9646 26.7695 9.9646 29.3188C9.9646 31.8681 10.9656 34.313 12.7473 36.1156C14.5291 37.9183 16.9456 38.931 19.4654 38.931Z" fill="#A259FF"/>
<path fill-rule="evenodd" clip-rule="evenodd" d="M19.4654 19.7067H28.9662V0.482422H19.4654C16.9456 0.482422 14.5291 1.49513 12.7473 3.29775C10.9656 5.10038 9.9646 7.54526 9.9646 10.0946C9.9646 12.6439 10.9656 15.0887 12.7473 16.8914C14.5291 18.694 16.9456 19.7067 19.4654 19.7067Z" fill="#F24E1E"/>
<path fill-rule="evenodd" clip-rule="evenodd" d="M38.4671 19.7067H28.9663V0.482422H38.4671C40.9869 0.482422 43.4035 1.49513 45.1852 3.29775C46.9669 5.10038 47.9679 7.54526 47.9679 10.0946C47.9679 12.6439 46.9669 15.0887 45.1852 16.8914C43.4035 18.694 40.9869 19.7067 38.4671 19.7067Z" fill="#FF7262"/>
</g>
<defs>
<clipPath id="clip0_0_657">
<rect width="57.0048" height="57.6728" fill="white" transform="translate(0.463867 0.482422)"/>
</clipPath>
</defs>
</svg>
