<svg width="26" height="26" viewBox="0 0 26 26" fill="none" xmlns="http://www.w3.org/2000/svg">
<path d="M24.0322 12.8222L13.5738 2.37144C13.4985 2.29599 13.409 2.23613 13.3105 2.19529C13.2121 2.15445 13.1065 2.13342 12.9999 2.13342C12.8933 2.13342 12.7878 2.15445 12.6893 2.19529C12.5908 2.23613 12.5014 2.29599 12.4261 2.37144L1.9677 12.8222C1.66301 13.1269 1.49036 13.5408 1.49036 13.9724C1.49036 14.8687 2.21907 15.5974 3.11536 15.5974H4.21731V23.0546C4.21731 23.5041 4.5804 23.8671 5.02981 23.8671H11.3749V18.1796H14.2187V23.8671H20.97C21.4195 23.8671 21.7825 23.5041 21.7825 23.0546V15.5974H22.8845C23.3161 15.5974 23.73 15.4273 24.0347 15.1201C24.6669 14.4853 24.6669 13.457 24.0322 12.8222V12.8222Z" fill="white"/>
</svg>
