<svg width="58" height="59" viewBox="0 0 58 59" fill="none" xmlns="http://www.w3.org/2000/svg">
<path d="M26.7208 49.7813V53.0355C24.9215 53.3121 22.7839 53.4688 20.4858 53.4688C14.0906 53.4688 8.90674 52.2335 8.90674 50.7032C8.90674 49.726 11.0355 48.8594 14.2509 48.3708L14.2955 48.3616C14.4825 49.1729 15.1951 49.7813 16.0323 49.7813H26.7208Z" fill="#969FAA"/>
<path d="M26.7208 44.25V49.7812H16.0324C15.1951 49.7812 14.4826 49.1728 14.2955 48.3616C14.2688 48.2233 14.251 48.085 14.251 47.9375V44.25H26.7208Z" fill="#AAB2BD"/>
<path d="M26.7209 36.875V44.25H14.2511H5.34405C3.3756 44.25 1.78125 42.5998 1.78125 40.5625V36.875H26.7209Z" fill="#CCD1D9"/>
<path d="M33.0003 20.2812H30.2837C28.3152 20.2812 26.7209 21.9314 26.7209 23.9688V36.875H1.78125V18.4375C1.78125 16.4002 3.3756 14.75 5.34405 14.75H11.1514C12.5855 16.9717 15.0349 18.4375 17.8139 18.4375C20.5928 18.4375 23.0423 16.9717 24.4763 14.75H30.4351C30.6489 16.0775 31.0853 17.322 31.7177 18.4467C32.0829 19.1013 32.5104 19.7189 33.0003 20.2812Z" fill="#69D6F4"/>
<path d="M40.9721 23.9688C46.8751 23.9688 51.6605 19.0159 51.6605 12.9062C51.6605 6.7966 46.8751 1.84375 40.9721 1.84375C35.0691 1.84375 30.2837 6.7966 30.2837 12.9062C30.2837 19.0159 35.0691 23.9688 40.9721 23.9688Z" fill="#4FC1E9"/>
<path d="M40.9719 23.9688H31.1742C30.6843 23.9688 30.2835 24.3836 30.2835 24.8906V35.0312V46.0938V57.1562L26.7207 53.4688V53.0355V49.7812V44.25V36.875V23.9688C26.7207 21.9314 28.3151 20.2812 30.2835 20.2812H33.0001C34.9597 22.5491 37.801 23.9688 40.9719 23.9688Z" fill="#FCD770"/>
<path d="M55.2234 23.9688V53.4688L51.6606 57.1562V46.0938V35.0312V24.8906C51.6606 24.3836 51.2598 23.9688 50.7699 23.9688H40.9722C44.1431 23.9688 46.9844 22.5491 48.9439 20.2812H51.6606C53.629 20.2812 55.2234 21.9314 55.2234 23.9688Z" fill="#FCD770"/>
<path d="M51.6605 26.7344V57.1562H30.2837V26.7344C30.2837 25.2133 30.6845 23.9688 31.1744 23.9688H40.9721H50.7698C51.2597 23.9688 51.6605 25.2133 51.6605 26.7344Z" fill="#FFEAA7"/>
<path d="M33.8467 27.6562H37.4095V31.3438H33.8467V27.6562Z" fill="#FF826E"/>
<path d="M40.9731 27.6562H48.0979V31.3438H40.9731V27.6562Z" fill="#FF826E"/>
<path d="M33.8467 49.7812H37.4095V53.4688H33.8467V49.7812Z" fill="#FF826E"/>
<path d="M40.9731 49.7812H48.0979V53.4688H40.9731V49.7812Z" fill="#FF826E"/>
<path d="M44.5347 38.7188H48.0975V42.4062H44.5347V38.7188Z" fill="#FF826E"/>
<path d="M33.8467 38.7188H40.9714V42.4062H33.8467V38.7188Z" fill="#FF826E"/>
<path d="M5.34424 27.6562H10.6884V33.1875H5.34424V27.6562Z" fill="#FF826E"/>
<path d="M5.34424 18.4375H10.6884V23.9688H5.34424V18.4375Z" fill="#FF826E"/>
<path d="M14.251 22.125H23.158V33.1875H14.251V22.125Z" fill="#E6E9ED"/>
<path d="M25.83 10.1406C25.83 11.8461 25.3312 13.4317 24.4761 14.75C23.0421 16.9717 20.5926 18.4375 17.8137 18.4375C15.0347 18.4375 12.5853 16.9717 11.1512 14.75C10.2962 13.4317 9.79736 11.8461 9.79736 10.1406C9.79736 5.55891 13.3869 1.84375 17.8137 1.84375C22.2404 1.84375 25.83 5.55891 25.83 10.1406Z" fill="#FF826E"/>
<path d="M51.6605 19.3594H50.7137C51.8716 17.4944 52.5512 15.2828 52.5512 12.9062C52.5512 6.29825 47.3567 0.921875 40.9721 0.921875C34.5876 0.921875 29.393 6.29825 29.393 12.9062C29.393 13.2178 29.4153 13.523 29.4385 13.8281H25.9727C26.4511 12.6979 26.7209 11.4515 26.7209 10.1406C26.7209 5.05741 22.7253 0.921875 17.8139 0.921875C12.9026 0.921875 8.90693 5.05741 8.90693 10.1406C8.90693 11.4515 9.17681 12.6979 9.65601 13.8281H5.34413C2.88847 13.8281 0.890625 15.8959 0.890625 18.4375V40.5625C0.890625 43.1041 2.88847 45.1719 5.34413 45.1719H13.3604V47.5909C8.03048 48.5469 8.01623 50.1574 8.01623 50.7031C8.01623 54.2874 19.2097 54.3906 20.486 54.3906C22.4331 54.3906 24.3223 54.2699 26.0262 54.0532L29.915 58.0781H52.0293L56.114 53.8504V23.9688C56.114 21.4271 54.1162 19.3594 51.6605 19.3594ZM31.1744 35.9531H50.7698V45.1719H31.1744V35.9531ZM31.1744 47.0156H50.7698V56.2344H31.1744V47.0156ZM50.7698 34.1094H31.1744V24.8906H50.7698V34.1094ZM40.9721 2.76562C41.9296 2.76562 42.9495 4.17333 43.6523 6.45312H38.292C38.9948 4.17333 40.0146 2.76562 40.9721 2.76562ZM44.1065 8.29688C44.3238 9.41142 44.4699 10.6504 44.5162 11.9844H37.428C37.4744 10.6504 37.6213 9.41142 37.8378 8.29688H44.1065ZM50.7244 11.9844H46.2968C46.2558 10.6762 46.1329 9.43723 45.9325 8.29688H49.6885C50.2461 9.42248 50.6095 10.6661 50.7244 11.9844V11.9844ZM49.6885 17.5156H45.9325C46.1329 16.3753 46.2567 15.1363 46.2968 13.8281H50.7244C50.6095 15.1464 50.2461 16.39 49.6885 17.5156ZM40.9721 23.0469C40.0146 23.0469 38.9948 21.6392 38.292 19.3594H43.6523C42.9495 21.6392 41.9296 23.0469 40.9721 23.0469ZM37.8378 17.5156C37.6204 16.4011 37.4744 15.1621 37.428 13.8281H44.5162C44.4699 15.1621 44.323 16.4011 44.1065 17.5156H37.8378ZM35.6475 11.9844H31.2199C31.3357 10.6661 31.6982 9.42248 32.2566 8.29688H36.0127C35.8114 9.43723 35.6876 10.6762 35.6475 11.9844V11.9844ZM35.6475 13.8281C35.6885 15.1363 35.8114 16.3753 36.0118 17.5156H32.2557C31.6982 16.39 31.3348 15.1464 31.219 13.8281H35.6475ZM36.4251 19.3594C36.7529 20.5532 37.1715 21.5922 37.6641 22.4394C35.9949 21.8171 34.5306 20.7486 33.4208 19.3594H36.4251ZM45.5192 19.3594H48.5244C47.4146 20.7486 45.9494 21.8171 44.2811 22.4394C44.7728 21.5922 45.1914 20.5532 45.5192 19.3594ZM48.5244 6.45312H45.5192C45.1914 5.2593 44.7728 4.22034 44.2802 3.37314C45.9494 3.99541 47.4137 5.06386 48.5244 6.45312ZM37.6641 3.37314C37.1715 4.22034 36.7529 5.2593 36.4251 6.45312H33.4199C34.5306 5.06386 35.9949 3.99541 37.6641 3.37314ZM17.8139 2.76562C21.7428 2.76562 24.9395 6.07423 24.9395 10.1406C24.9395 14.207 21.7428 17.5156 17.8139 17.5156C13.8851 17.5156 10.6883 14.207 10.6883 10.1406C10.6883 6.07423 13.8851 2.76562 17.8139 2.76562ZM2.67203 40.5625V37.7969H25.8302V43.3281H5.34413C3.87091 43.3281 2.67203 42.0873 2.67203 40.5625ZM25.8302 45.1719V48.8594H16.0325C15.5418 48.8594 15.1418 48.4455 15.1418 47.9375V45.1719H25.8302ZM9.85107 50.7077C10.1325 50.4321 11.2058 49.8439 13.7684 49.3904C14.2404 50.1749 15.075 50.7031 16.0325 50.7031H25.8302V52.2205C24.1931 52.4307 22.3708 52.5469 20.486 52.5469C14.3277 52.5469 10.5031 51.4148 9.85107 50.7077V50.7077ZM25.8302 23.9688V35.9531H2.67203V18.4375C2.67203 16.9127 3.87091 15.6719 5.34413 15.6719H10.7053C12.3326 17.9056 14.9085 19.3594 17.8139 19.3594C20.7194 19.3594 23.2953 17.9056 24.9226 15.6719H29.7164C30.021 17.0003 30.5367 18.2421 31.2306 19.3594H30.2837C27.8281 19.3594 25.8302 21.4271 25.8302 23.9688V23.9688ZM27.6116 23.9688C27.6116 22.444 28.8105 21.2031 30.2837 21.2031H32.6361C33.2899 21.9074 34.0274 22.5242 34.8299 23.0469H31.1744C30.192 23.0469 29.393 23.8738 29.393 24.8906V54.9308L27.6116 53.0871V23.9688ZM54.3326 53.0871L52.5512 54.9308V24.8906C52.5512 23.8738 51.7523 23.0469 50.7698 23.0469H47.1153C47.9178 22.5242 48.6544 21.9074 49.3091 21.2031H51.6605C53.1338 21.2031 54.3326 22.444 54.3326 23.9688V53.0871Z" fill="black"/>
<path d="M32.9561 32.2656H38.3003V26.7344H32.9561V32.2656ZM34.7375 28.5781H36.5189V30.4219H34.7375V28.5781Z" fill="black"/>
<path d="M40.0815 32.2656H48.9885V26.7344H40.0815V32.2656ZM47.2071 30.4219H45.4257V28.5781H47.2071V30.4219ZM41.8629 28.5781H43.6443V30.4219H41.8629V28.5781Z" fill="black"/>
<path d="M32.9561 54.3906H38.3003V48.8594H32.9561V54.3906ZM34.7375 50.7031H36.5189V52.5469H34.7375V50.7031Z" fill="black"/>
<path d="M40.0815 48.8594V54.3906H48.9885V48.8594H40.0815ZM41.8629 50.7031H43.6443V52.5469H41.8629V50.7031ZM47.2071 52.5469H45.4257V50.7031H47.2071V52.5469Z" fill="black"/>
<path d="M43.644 37.7969V43.3281H48.9882V37.7969H43.644ZM47.2068 41.4844H45.4254V39.6406H47.2068V41.4844Z" fill="black"/>
<path d="M32.9561 43.3281H41.8631V37.7969H32.9561V43.3281ZM40.0817 41.4844H38.3003V39.6406H40.0817V41.4844ZM34.7375 39.6406H36.5189V41.4844H34.7375V39.6406Z" fill="black"/>
<path d="M4.45361 39.6406H6.23501V41.4844H4.45361V39.6406Z" fill="black"/>
<path d="M8.01611 39.6406H9.79751V41.4844H8.01611V39.6406Z" fill="black"/>
<path d="M11.5791 39.6406H13.3605V41.4844H11.5791V39.6406Z" fill="black"/>
<path d="M4.45361 34.1094H11.5792V26.7344H4.45361V34.1094ZM6.23501 28.5781H9.79782V32.2656H6.23501V28.5781Z" fill="black"/>
<path d="M4.45361 24.8906H11.5792V17.5156H4.45361V24.8906ZM6.23501 19.3594H9.79782V23.0469H6.23501V19.3594Z" fill="black"/>
<path d="M13.3604 34.1094H24.0488V21.2031H13.3604V34.1094ZM15.1418 23.0469H22.2674V32.2656H15.1418V23.0469Z" fill="black"/>
<path d="M22.0067 8.02678L20.7473 6.72324L15.1421 12.5246L13.9904 11.3326L12.731 12.6362L15.1421 15.1317L22.0067 8.02678Z" fill="black"/>
</svg>
