<svg width="58" height="58" viewBox="0 0 58 58" fill="none" xmlns="http://www.w3.org/2000/svg">
<g clip-path="url(#clip0_0_668)">
<path d="M3.81133 1.94578L7.51105 49.8317C7.56659 50.5508 8.04769 51.164 8.72731 51.382L28.1954 57.6266C28.5396 57.737 28.9092 57.737 29.2535 57.6266L48.7216 51.382C49.4012 51.164 49.8823 50.5508 49.9378 49.8317L53.6376 1.94578C53.7171 0.916253 52.9129 0.0365753 51.8923 0.0365753H5.55674C4.53612 0.0365753 3.73189 0.916253 3.81133 1.94578ZM44.1499 16.8032H20.038L20.7657 23.5921H43.6254L42.13 42.9462L28.7245 47.2461L15.319 42.9462L14.5377 32.8348H21.574V37.7946L28.9125 39.7872L36.2072 37.7946L36.7731 29.8901H14.3102L12.8188 10.5867H44.63L44.1499 16.8032Z" fill="#FC490B"/>
</g>
<defs>
<clipPath id="clip0_0_668">
<rect width="57.0048" height="57.6728" fill="white" transform="translate(0.222168 0.0365753)"/>
</clipPath>
</defs>
</svg>
