<svg width="21" height="22" viewBox="0 0 21 22" fill="none" xmlns="http://www.w3.org/2000/svg">
<path fill-rule="evenodd" clip-rule="evenodd" d="M6.66758 1.75113C7.66286 1.70496 7.98019 1.6947 10.5155 1.6947C13.0507 1.6947 13.3681 1.70582 14.3625 1.75113C15.3569 1.79644 16.0357 1.95632 16.6296 2.18802C17.2516 2.42484 17.8158 2.79504 18.2825 3.27382C18.7576 3.74319 19.1242 4.31089 19.3584 4.93843C19.5892 5.5369 19.747 6.22087 19.7928 7.22118C19.8386 8.22576 19.8488 8.54551 19.8488 11.0993C19.8488 13.6539 19.8378 13.9737 19.7928 14.9765C19.7478 15.9768 19.5892 16.6608 19.3584 17.2593C19.1242 17.8869 18.757 18.4555 18.2825 18.9256C17.8158 19.4044 17.2516 19.7737 16.6296 20.0097C16.0357 20.2422 15.3569 20.4013 14.3642 20.4474C13.3681 20.4936 13.0507 20.5039 10.5155 20.5039C7.98019 20.5039 7.66286 20.4927 6.66758 20.4474C5.67486 20.4021 4.99607 20.2422 4.40213 20.0097C3.77927 19.7737 3.21495 19.4037 2.74843 18.9256C2.2736 18.4559 1.90615 17.8876 1.6717 17.2601C1.44177 16.6617 1.28395 15.9777 1.23813 14.9774C1.19231 13.9728 1.18213 13.6531 1.18213 11.0993C1.18213 8.54466 1.19316 8.2249 1.23813 7.22289C1.2831 6.22087 1.44177 5.5369 1.6717 4.93843C1.9065 4.31096 2.27423 3.7426 2.74928 3.27296C3.21513 2.79461 3.77889 2.42436 4.40128 2.18802C4.99522 1.95632 5.67401 1.7973 6.66673 1.75113H6.66758ZM14.287 3.44395C13.3027 3.39864 13.0075 3.38924 10.5155 3.38924C8.02346 3.38924 7.72819 3.39864 6.74395 3.44395C5.83352 3.48585 5.3397 3.63889 5.01049 3.76798C4.57522 3.93898 4.26383 4.1416 3.93716 4.47076C3.6275 4.77432 3.38919 5.14386 3.2397 5.55229C3.11158 5.88402 2.9597 6.3816 2.91813 7.29898C2.87316 8.29073 2.86383 8.58826 2.86383 11.0993C2.86383 13.6103 2.87316 13.9078 2.91813 14.8996C2.9597 15.817 3.11158 16.3145 3.2397 16.6463C3.38904 17.0541 3.62746 17.4243 3.93716 17.7278C4.23837 18.0399 4.60576 18.2801 5.01049 18.4306C5.3397 18.5597 5.83352 18.7127 6.74395 18.7546C7.72819 18.7999 8.02261 18.8093 10.5155 18.8093C13.0083 18.8093 13.3027 18.7999 14.287 18.7546C15.1974 18.7127 15.6912 18.5597 16.0204 18.4306C16.4557 18.2596 16.7671 18.057 17.0938 17.7278C17.4035 17.4243 17.6419 17.0541 17.7912 16.6463C17.9193 16.3145 18.0712 15.817 18.1128 14.8996C18.1578 13.9078 18.1671 13.6103 18.1671 11.0993C18.1671 8.58826 18.1578 8.29073 18.1128 7.29898C18.0712 6.3816 17.9193 5.88402 17.7912 5.55229C17.6215 5.11369 17.4204 4.79992 17.0938 4.47076C16.7925 4.15876 16.4258 3.91864 16.0204 3.76798C15.6912 3.63889 15.1974 3.48585 14.287 3.44395ZM9.32334 13.9985C9.98911 14.2777 10.7304 14.3154 11.4207 14.1051C12.111 13.8948 12.7074 13.4495 13.1081 12.8453C13.5088 12.2411 13.6888 11.5155 13.6176 10.7924C13.5463 10.0693 13.2281 9.39361 12.7173 8.88066C12.3917 8.55276 11.9979 8.30169 11.5645 8.14551C11.131 7.98934 10.6686 7.93196 10.2104 7.97749C9.7523 8.02302 9.30989 8.17033 8.91505 8.40883C8.52021 8.64732 8.18276 8.97106 7.92699 9.35674C7.67122 9.74242 7.5035 10.1804 7.4359 10.6393C7.3683 11.0981 7.4025 11.5663 7.53604 12.0103C7.66958 12.4542 7.89914 12.8627 8.20819 13.2065C8.51725 13.5503 8.8981 13.8208 9.32334 13.9985ZM7.12322 7.68114C7.56869 7.23227 8.09755 6.8762 8.67959 6.63327C9.26163 6.39034 9.88546 6.26531 10.5155 6.26531C11.1455 6.26531 11.7693 6.39034 12.3513 6.63327C12.9334 6.8762 13.4622 7.23227 13.9077 7.68114C14.3532 8.13002 14.7065 8.66291 14.9476 9.2494C15.1887 9.83588 15.3128 10.4645 15.3128 11.0993C15.3128 11.7341 15.1887 12.3627 14.9476 12.9492C14.7065 13.5356 14.3532 14.0685 13.9077 14.5174C13.008 15.424 11.7878 15.9333 10.5155 15.9333C9.24312 15.9333 8.0229 15.424 7.12322 14.5174C6.22354 13.6109 5.71811 12.3813 5.71811 11.0993C5.71811 9.81723 6.22354 8.58769 7.12322 7.68114ZM16.3768 6.98521C16.4872 6.88028 16.5756 6.75409 16.6367 6.61413C16.6978 6.47417 16.7305 6.32327 16.7327 6.17037C16.7349 6.01747 16.7066 5.86567 16.6496 5.72397C16.5925 5.58228 16.5078 5.45355 16.4005 5.34542C16.2932 5.23729 16.1655 5.15196 16.0248 5.09447C15.8842 5.03699 15.7336 5.00851 15.5818 5.01074C15.4301 5.01297 15.2803 5.04586 15.1414 5.10745C15.0025 5.16904 14.8773 5.25809 14.7732 5.36933C14.5706 5.58566 14.4598 5.873 14.4641 6.17037C14.4684 6.46773 14.5875 6.7517 14.7962 6.96199C15.0049 7.17228 15.2867 7.29233 15.5818 7.29667C15.8769 7.301 16.1621 7.18928 16.3768 6.98521Z" fill="#090A13"/>
</svg>
