<svg width="58" height="58" viewBox="0 0 58 58" fill="none" xmlns="http://www.w3.org/2000/svg">
<path d="M20.6532 4.95971H8.77719C8.3062 4.91427 7.83623 5.05608 7.46678 5.3551C7.09734 5.65412 6.85743 6.08688 6.79785 6.56173V53.0204H22.6325V6.56173C22.573 6.08688 22.333 5.65412 21.9636 5.3551C21.5941 5.05608 21.1242 4.91427 20.6532 4.95971Z" fill="#19BCFE"/>
<path d="M53.9375 49.9606L42.9483 20.6436C42.8745 20.4468 42.7631 20.2668 42.6205 20.1136C42.4779 19.9604 42.3069 19.8372 42.1172 19.7509C41.9275 19.6646 41.7229 19.617 41.515 19.6107C41.3071 19.6045 41.1 19.6397 40.9056 19.7144L35.3001 21.9252V14.5719C35.3001 14.147 35.1333 13.7395 34.8363 13.4391C34.5394 13.1387 34.1366 12.9699 33.7167 12.9699H25.7993V53.0204H35.3001V23.6874L46.2736 53.0204L53.9375 49.9606Z" fill="#F24E1E"/>
</svg>
