<svg width="131" height="131" viewBox="0 0 131 131" fill="none" xmlns="http://www.w3.org/2000/svg">
<path d="M78.6001 26.2L78.6001 32.75L52.4001 32.75L52.4001 26.2C52.4001 22.7257 53.7803 19.3936 56.237 16.9369C58.6937 14.4802 62.0258 13.1 65.5001 13.1C68.9744 13.1 72.3065 14.4802 74.7632 16.9369C77.2199 19.3936 78.6001 22.7257 78.6001 26.2Z" fill="white"/>
<path d="M52.4002 39.3C52.3019 41.527 51.0378 43.5313 49.2758 44.9265C45.0008 48.298 41.8823 52.9177 40.3538 58.1433C38.8253 63.369 38.9628 68.941 40.7471 74.0849C42.5314 79.2288 45.874 83.6891 50.3101 86.8457C54.7462 90.0023 60.0556 91.6985 65.5002 91.6985C70.9448 91.6985 76.2541 90.0023 80.6903 86.8457C85.1264 83.6891 88.4689 79.2288 90.2533 74.0849C92.0376 68.941 92.1751 63.369 90.6466 58.1433C89.1181 52.9177 85.9996 48.298 81.7245 44.9265C79.956 43.5313 78.6984 41.527 78.6067 39.3L52.3936 39.3L52.4002 39.3Z" fill="#F6A01F"/>
<rect x="62" y="104" width="6" height="24" rx="3" fill="#F6A01F"/>
<rect x="37.9707" y="91" width="6" height="24" rx="3" transform="rotate(45 37.9707 91)" fill="#F6A01F"/>
<rect x="87" y="95.2427" width="6" height="24" rx="3" transform="rotate(-45 87 95.2427)" fill="#F6A01F"/>
<rect x="99" y="69" width="6" height="24" rx="3" transform="rotate(-90 99 69)" fill="#F6A01F"/>
<rect x="8" y="69" width="6" height="24" rx="3" transform="rotate(-90 8 69)" fill="#F6A01F"/>
</svg>
