<svg width="21" height="22" viewBox="0 0 21 22" fill="none" xmlns="http://www.w3.org/2000/svg">
<path fill-rule="evenodd" clip-rule="evenodd" d="M1.15186 3.26612C1.15186 2.84936 1.31616 2.44966 1.60863 2.15496C1.90109 1.86026 2.29776 1.6947 2.71137 1.6947H18.2573C18.4623 1.69437 18.6653 1.73477 18.8548 1.8136C19.0442 1.89243 19.2164 2.00814 19.3614 2.15411C19.5064 2.30007 19.6214 2.47342 19.6999 2.66424C19.7783 2.85506 19.8186 3.05959 19.8185 3.26612V18.9307C19.8187 19.1373 19.7785 19.3419 19.7002 19.5328C19.6219 19.7237 19.507 19.8972 19.362 20.0433C19.2171 20.1894 19.045 20.3053 18.8556 20.3843C18.6662 20.4634 18.4632 20.504 18.2582 20.5039H2.71137C2.5065 20.5039 2.30364 20.4632 2.11437 20.3842C1.92511 20.3051 1.75315 20.1893 1.60833 20.0433C1.4635 19.8973 1.34865 19.724 1.27032 19.5332C1.192 19.3425 1.15174 19.138 1.15186 18.9316V3.26612ZM8.54046 8.86612H11.0681V10.1451C11.4329 9.40988 12.3663 8.74814 13.7688 8.74814C16.4577 8.74814 17.0949 10.2127 17.0949 12.8998V17.8774H14.3738V13.512C14.3738 11.9816 14.0089 11.1181 13.0824 11.1181C11.7969 11.1181 11.2624 12.0491 11.2624 13.512V17.8774H8.54046V8.86612ZM3.8738 17.7603H6.59573V8.74814H3.8738V17.7594V17.7603ZM6.98519 5.80878C6.99032 6.04361 6.94885 6.27712 6.86321 6.49558C6.77757 6.71405 6.64949 6.91308 6.48648 7.08099C6.32347 7.2489 6.12881 7.38231 5.91394 7.4734C5.69907 7.56448 5.4683 7.6114 5.23519 7.6114C5.00208 7.6114 4.77131 7.56448 4.55644 7.4734C4.34157 7.38231 4.14691 7.2489 3.9839 7.08099C3.82089 6.91308 3.69281 6.71405 3.60717 6.49558C3.52153 6.27712 3.48006 6.04361 3.48519 5.80878C3.49526 5.34783 3.68406 4.90918 4.01115 4.58677C4.33824 4.26436 4.77762 4.08382 5.23519 4.08382C5.69276 4.08382 6.13213 4.26436 6.45923 4.58677C6.78632 4.90918 6.97512 5.34783 6.98519 5.80878Z" fill="#090A13"/>
</svg>
