<svg width="20" height="20" viewBox="0 0 20 20" fill="none" xmlns="http://www.w3.org/2000/svg">
<path d="M9.9833 17.5C8.93249 16.6022 7.95849 15.618 7.07148 14.5575C5.74037 12.965 4.15967 10.5934 4.15967 8.33338C4.15849 5.973 5.57751 3.84453 7.75457 2.94121C9.93162 2.03788 12.4376 2.53774 14.1031 4.20754C15.1983 5.29972 15.8118 6.78537 15.807 8.33338C15.807 10.5934 14.2262 12.965 12.8951 14.5575C12.0081 15.618 11.0341 16.6022 9.9833 17.5ZM9.9833 4.16671C7.68708 4.16946 5.82631 6.03333 5.82356 8.33338C5.82356 9.30504 6.262 10.9875 8.34852 13.4884C8.86278 14.1034 9.40843 14.6914 9.9833 15.25C10.5582 14.6921 11.1041 14.1049 11.6189 13.4909C13.7046 10.9867 14.143 9.30421 14.143 8.33338C14.1403 6.03333 12.2795 4.16946 9.9833 4.16671ZM9.9833 10.8334C8.60488 10.8334 7.48746 9.71409 7.48746 8.33338C7.48746 6.95266 8.60488 5.83338 9.9833 5.83338C11.3617 5.83338 12.4791 6.95266 12.4791 8.33338C12.4791 8.99642 12.2162 9.6323 11.7481 10.1011C11.2801 10.57 10.6452 10.8334 9.9833 10.8334Z" fill="white"/>
</svg>
