<svg width="28" height="30" viewBox="0 0 28 30" fill="none" xmlns="http://www.w3.org/2000/svg">
<path d="M13.9844 26.25C12.5412 24.9033 11.2036 23.4269 9.98535 21.8363C8.15723 19.4475 5.98633 15.89 5.98633 12.5C5.98471 8.95943 7.93356 5.76674 10.9235 4.41175C13.9134 3.05676 17.3551 3.80655 19.6424 6.31125C21.1466 7.94951 21.9892 10.178 21.9825 12.5C21.9825 15.89 19.8115 19.4475 17.9834 21.8363C16.7652 23.4269 15.4275 24.9033 13.9844 26.25ZM13.9844 6.25C10.8308 6.25413 8.27526 9.04994 8.27149 12.5C8.27149 13.9575 8.87363 16.4813 11.7392 20.2325C12.4455 21.1551 13.1949 22.0371 13.9844 22.875C14.7739 22.0381 15.5237 21.1573 16.2307 20.2363C19.0951 16.48 19.6973 13.9563 19.6973 12.5C19.6935 9.04994 17.138 6.25413 13.9844 6.25ZM13.9844 16.25C12.0913 16.25 10.5566 14.5711 10.5566 12.5C10.5566 10.4289 12.0913 8.75 13.9844 8.75C15.8775 8.75 17.4121 10.4289 17.4121 12.5C17.4121 13.4946 17.051 14.4484 16.4082 15.1517C15.7653 15.8549 14.8935 16.25 13.9844 16.25Z" fill="black"/>
</svg>
