<svg width="58" height="59" viewBox="0 0 58 59" fill="none" xmlns="http://www.w3.org/2000/svg">
<g clip-path="url(#clip0_0_305)">
<path d="M48.8663 31.5166L41.6728 44.4114L40.6028 46.3289C39.907 47.5769 38.621 48.3455 37.2282 48.3455H20.7035C19.3106 48.3455 18.0247 47.5769 17.3288 46.3289L16.2589 44.4114L9.06535 31.5166C8.36949 30.2686 8.36949 28.7314 9.06535 27.4834L16.083 14.9044L17.3288 12.6712C18.0247 11.4232 19.3106 10.6546 20.7035 10.6546H37.2282C38.621 10.6546 39.907 11.4232 40.6028 12.6712L41.8487 14.9044L48.8663 27.4834C49.5622 28.7314 49.5622 30.2686 48.8663 31.5166Z" fill="#99E6FC"/>
<path d="M20.1123 46.3289L19.0423 44.4114L11.8488 31.5166C11.1529 30.2686 11.1529 28.7314 11.8488 27.4834L18.8664 14.9044L20.1123 12.6712C20.8081 11.4232 22.0941 10.6546 23.4869 10.6546H20.7035C19.3106 10.6546 18.0247 11.4232 17.3288 12.6712L16.083 14.9044L9.06535 27.4834C8.36949 28.7314 8.36949 30.2686 9.06535 31.5166L16.2589 44.4114L17.3288 46.3289C18.0247 47.5769 19.3106 48.3455 20.7035 48.3455H23.4869C22.0941 48.3455 20.8081 47.5769 20.1123 46.3289V46.3289Z" fill="#62DBFB"/>
<path d="M5.30649 5.47363H1.74369C1.49775 5.47363 1.29834 5.26725 1.29834 5.0127V1.3252C1.29834 1.07064 1.49775 0.864258 1.74369 0.864258H5.30649C5.55244 0.864258 5.75184 1.07064 5.75184 1.3252V5.0127C5.75184 5.26725 5.55244 5.47363 5.30649 5.47363Z" fill="#7CA1B1"/>
<path d="M30.7469 5.47363H27.1841C26.9382 5.47363 26.7388 5.26725 26.7388 5.0127V1.3252C26.7388 1.07064 26.9382 0.864258 27.1841 0.864258H30.7469C30.9929 0.864258 31.1923 1.07064 31.1923 1.3252V5.0127C31.1923 5.26725 30.9929 5.47363 30.7469 5.47363Z" fill="#7CA1B1"/>
<path d="M56.1878 5.47363H52.625C52.3791 5.47363 52.1797 5.26725 52.1797 5.0127V1.3252C52.1797 1.07064 52.3791 0.864258 52.625 0.864258H56.1878C56.4338 0.864258 56.6332 1.07064 56.6332 1.3252V5.0127C56.6332 5.26725 56.4338 5.47363 56.1878 5.47363Z" fill="#7CA1B1"/>
<path d="M5.30649 58.1357H1.74369C1.49775 58.1357 1.29834 57.9294 1.29834 57.6748V53.9873C1.29834 53.7328 1.49775 53.5264 1.74369 53.5264H5.30649C5.55244 53.5264 5.75184 53.7328 5.75184 53.9873V57.6748C5.75184 57.9294 5.55244 58.1357 5.30649 58.1357Z" fill="#7CA1B1"/>
<path d="M5.30649 58.1357H1.74369C1.49775 58.1357 1.29834 57.9294 1.29834 57.6748V53.9873C1.29834 53.7328 1.49775 53.5264 1.74369 53.5264H5.30649C5.55244 53.5264 5.75184 53.7328 5.75184 53.9873V57.6748C5.75184 57.9294 5.55244 58.1357 5.30649 58.1357Z" fill="#7CA1B1"/>
<path d="M5.30649 31.8047H1.74369C1.49775 31.8047 1.29834 31.5983 1.29834 31.3438V27.6562C1.29834 27.4017 1.49775 27.1953 1.74369 27.1953H5.30649C5.55244 27.1953 5.75184 27.4017 5.75184 27.6562V31.3438C5.75184 31.5983 5.55244 31.8047 5.30649 31.8047Z" fill="#7CA1B1"/>
<path d="M5.30649 31.8047H1.74369C1.49775 31.8047 1.29834 31.5983 1.29834 31.3438V27.6562C1.29834 27.4017 1.49775 27.1953 1.74369 27.1953H5.30649C5.55244 27.1953 5.75184 27.4017 5.75184 27.6562V31.3438C5.75184 31.5983 5.55244 31.8047 5.30649 31.8047Z" fill="#7CA1B1"/>
<path d="M30.7469 58.1357H27.1841C26.9382 58.1357 26.7388 57.9294 26.7388 57.6748V53.9873C26.7388 53.7328 26.9382 53.5264 27.1841 53.5264H30.7469C30.9929 53.5264 31.1923 53.7328 31.1923 53.9873V57.6748C31.1923 57.9294 30.9929 58.1357 30.7469 58.1357Z" fill="#7CA1B1"/>
<path d="M56.1878 58.1357H52.625C52.3791 58.1357 52.1797 57.9294 52.1797 57.6748V53.9873C52.1797 53.7328 52.3791 53.5264 52.625 53.5264H56.1878C56.4338 53.5264 56.6332 53.7328 56.6332 53.9873V57.6748C56.6332 57.9294 56.4338 58.1357 56.1878 58.1357Z" fill="#7CA1B1"/>
<path d="M56.1878 31.8047H52.625C52.3791 31.8047 52.1797 31.5983 52.1797 31.3438V27.6562C52.1797 27.4017 52.3791 27.1953 52.625 27.1953H56.1878C56.4338 27.1953 56.6332 27.4017 56.6332 27.6562V31.3438C56.6332 31.5983 56.4338 31.8047 56.1878 31.8047Z" fill="#7CA1B1"/>
<path d="M41.8488 14.9044H16.083L17.3289 12.6712C18.0247 11.4232 19.3107 10.6546 20.7035 10.6546H37.2282C38.6211 10.6546 39.907 11.4232 40.6029 12.6712L41.8488 14.9044Z" fill="#26A6FE"/>
<path d="M41.6727 44.4113L40.6027 46.3288C39.9069 47.5768 38.6209 48.3454 37.2281 48.3454H20.7034C19.3106 48.3454 18.0246 47.5768 17.3287 46.3288L16.2588 44.4113H41.6727Z" fill="#26A6FE"/>
<path d="M34.3224 22.0991H24.8917C24.1098 22.0991 23.4349 21.4773 23.4004 20.6688C23.3639 19.8106 24.0252 19.103 24.8463 19.103H34.2769C35.0589 19.103 35.7338 19.7248 35.7683 20.5333C35.8049 21.3914 35.1435 22.0991 34.3224 22.0991V22.0991Z" fill="#26A6FE"/>
<path d="M34.3224 40.0544H24.8917C24.1098 40.0544 23.4349 39.4325 23.4004 38.6241C23.3639 37.7659 24.0252 37.0583 24.8463 37.0583H34.2769C35.0589 37.0583 35.7338 37.6801 35.7683 38.4885C35.8049 39.3467 35.1435 40.0544 34.3224 40.0544V40.0544Z" fill="#26A6FE"/>
<path d="M23.487 10.6546H20.7035C19.3107 10.6546 18.0247 11.4232 17.3289 12.6712L16.083 14.9044H18.8664L20.1123 12.6712C20.8082 11.4232 22.0941 10.6546 23.487 10.6546V10.6546Z" fill="#0593FC"/>
<path d="M20.1122 46.3288L19.0422 44.4113H16.2588L17.3287 46.3288C18.0246 47.5768 19.3106 48.3454 20.7034 48.3454H23.4868C22.094 48.3454 20.808 47.5768 20.1122 46.3288V46.3288Z" fill="#0593FC"/>
<path d="M26.1838 20.6689C26.1473 19.8107 26.8086 19.1031 27.6298 19.1031H24.8463C24.0252 19.1031 23.3639 19.8107 23.4004 20.6689C23.4348 21.4774 24.1098 22.0992 24.8917 22.0992H27.6752C26.8933 22.0991 26.2182 21.4774 26.1838 20.6689Z" fill="#0593FC"/>
<path d="M26.1838 38.6241C26.1473 37.7659 26.8086 37.0583 27.6298 37.0583H24.8463C24.0252 37.0583 23.3639 37.7659 23.4004 38.6241C23.4348 39.4325 24.1098 40.0544 24.8917 40.0544H27.6752C26.8933 40.0544 26.2182 39.4325 26.1838 38.6241Z" fill="#0593FC"/>
<path d="M56.1878 6.33789C56.8938 6.33789 57.4682 5.7434 57.4682 5.0127V1.3252C57.4682 0.594494 56.8938 0 56.1878 0H52.625C51.919 0 51.3446 0.594494 51.3446 1.3252V2.30469H32.0276V1.3252C32.0276 0.594494 31.4532 0 30.7472 0H27.1844C26.4784 0 25.904 0.594494 25.904 1.3252V2.30469H6.58694V1.3252C6.58694 0.594494 6.01255 0 5.30656 0H1.74376C1.03777 0 0.463379 0.594494 0.463379 1.3252V5.0127C0.463379 5.7434 1.03777 6.33789 1.74376 6.33789H2.69013V26.3311H1.74376C1.03777 26.3311 0.463379 26.9255 0.463379 27.6562V31.3438C0.463379 32.0745 1.03777 32.6689 1.74376 32.6689H2.69013V52.6621H1.74376C1.03777 52.6621 0.463379 53.2566 0.463379 53.9873V57.6748C0.463379 58.4055 1.03777 59 1.74376 59H5.30656C6.01255 59 6.58694 58.4055 6.58694 57.6748V56.6953H25.904V57.6748C25.904 58.4055 26.4784 59 27.1844 59H30.7472C31.4532 59 32.0276 58.4055 32.0276 57.6748V56.6953H51.3446V57.6748C51.3446 58.4055 51.919 59 52.625 59H56.1878C56.8938 59 57.4682 58.4055 57.4682 57.6748V53.9873C57.4682 53.2566 56.8938 52.6621 56.1878 52.6621H55.2415V32.6689H56.1878C56.8938 32.6689 57.4682 32.0745 57.4682 31.3438V27.6562C57.4682 26.9255 56.8938 26.3311 56.1878 26.3311H55.2415V6.33789H56.1878ZM53.0147 1.72852H55.7981V4.60938H53.0147V1.72852ZM27.5741 1.72852H30.3575V4.60938H27.5741V1.72852ZM2.13344 1.72852H4.91688V4.60938H2.13344V1.72852ZM2.13344 28.0596H4.91688V30.9404H2.13344V28.0596ZM4.91688 57.2715H2.13344V54.3906H4.91688V57.2715ZM30.3575 57.2715H27.5741V54.3906H30.3575V57.2715ZM55.7981 57.2715H53.0147V54.3906H55.7981V57.2715ZM55.7981 30.9404H53.0147V28.0596H55.7981V30.9404ZM53.5714 26.3311H52.625C51.919 26.3311 51.3446 26.9255 51.3446 27.6562V31.3438C51.3446 32.0745 51.919 32.6689 52.625 32.6689H53.5714V52.6621H52.625C51.919 52.6621 51.3446 53.2566 51.3446 53.9873V54.9668H32.0276V53.9873C32.0276 53.2566 31.4532 52.6621 30.7472 52.6621H27.1844C26.4784 52.6621 25.904 53.2566 25.904 53.9873V54.9668H6.58694V53.9873C6.58694 53.2566 6.01255 52.6621 5.30656 52.6621H4.36019V32.6689H5.30656C6.01255 32.6689 6.58694 32.0745 6.58694 31.3438V27.6562C6.58694 26.9255 6.01255 26.3311 5.30656 26.3311H4.36019V6.33789H5.30656C6.01255 6.33789 6.58694 5.7434 6.58694 5.0127V4.0332H25.904V5.0127C25.904 5.7434 26.4784 6.33789 27.1844 6.33789H30.7472C31.4532 6.33789 32.0276 5.7434 32.0276 5.0127V4.0332H51.3446V5.0127C51.3446 5.7434 51.919 6.33789 52.625 6.33789H53.5714V26.3311Z" fill="black"/>
<path d="M41.3259 12.2392C40.4838 10.7287 38.9135 9.79034 37.2281 9.79034H20.7033C19.0179 9.79034 17.4477 10.7287 16.6056 12.2391L8.34197 27.0514C7.49992 28.5618 7.49992 30.4383 8.34208 31.9488L16.6054 46.7609C17.4477 48.2714 19.0179 49.2097 20.7033 49.2097H37.2281C38.9135 49.2097 40.4837 48.2714 41.3257 46.7611L45.274 39.6833C45.5046 39.2698 45.3677 38.7413 44.9683 38.5027C44.5686 38.2642 44.0582 38.4056 43.8277 38.819L41.1902 43.5471H16.7411L9.78847 31.0846C9.24347 30.1073 9.24347 28.8927 9.78836 27.9156L16.5649 15.7687H22.3578C22.819 15.7687 23.1928 15.3819 23.1928 14.9044C23.1928 14.427 22.819 14.0402 22.3578 14.0402H17.5292L18.0519 13.1032C18.5968 12.126 19.6128 11.5189 20.7033 11.5189H37.2281C38.3186 11.5189 39.3346 12.126 39.8794 13.1033L40.4021 14.0402H26.2546C25.7935 14.0402 25.4196 14.427 25.4196 14.9044C25.4196 15.3819 25.7935 15.7687 26.2546 15.7687H41.3665L48.1429 27.9154C48.688 28.8927 48.688 30.1073 48.143 31.0845L45.8449 35.2041C45.6143 35.6175 45.7512 36.1461 46.1505 36.3847C46.5497 36.6231 47.0606 36.4817 47.2912 36.0684L49.5894 31.9486C50.4315 30.4383 50.4315 28.5618 49.5893 27.0513L41.3259 12.2392ZM40.2259 45.2756L39.8794 45.8968C39.3346 46.874 38.3186 47.4812 37.2282 47.4812H20.7033C19.6128 47.4812 18.5968 46.874 18.0518 45.8966L17.7055 45.2756H40.2259Z" fill="black"/>
<path d="M14.6387 25.434C14.1776 25.434 13.8037 25.8209 13.8037 26.2982V32.5847C13.8037 33.1182 14.2228 33.5574 14.7376 33.5641C14.8474 33.5656 16.7602 33.561 16.8101 33.5608C17.2712 33.5581 17.643 33.1691 17.6404 32.6917C17.6378 32.216 17.2645 31.8323 16.8055 31.8323C16.8039 31.8323 16.8023 31.8323 16.8007 31.8323C16.79 31.8324 16.0757 31.8364 15.4739 31.8374V26.2984C15.4738 25.8209 15.0999 25.434 14.6387 25.434V25.434Z" fill="black"/>
<path d="M31.4642 27.1702C31.9862 27.127 32.4873 27.2621 32.9151 27.5612C33.2973 27.8282 33.8162 27.7244 34.0744 27.3288C34.3325 26.9333 34.2321 26.396 33.8499 26.1288C33.1049 25.6078 32.2336 25.3723 31.3305 25.4473C29.4142 25.6066 27.868 27.224 27.7341 29.2097C27.657 30.3512 28.0284 31.4392 28.7793 32.2727C29.52 33.0946 30.5674 33.566 31.653 33.566C33.6658 33.566 35.1068 31.9452 35.1571 29.6251C35.163 29.3669 35.0661 29.1126 34.8914 28.9274C34.7165 28.7421 34.4726 28.6357 34.2223 28.6357H32.4725C32.0112 28.6357 31.6375 29.0226 31.6375 29.5C31.6375 29.9774 32.0112 30.3643 32.4725 30.3643H33.3844C33.1794 31.165 32.6538 31.8375 31.6528 31.8375C31.0196 31.8375 30.4328 31.5734 30.0006 31.0938C29.5689 30.6147 29.3556 29.9883 29.3999 29.3301C29.4772 28.1902 30.3646 27.2616 31.4642 27.1702V27.1702Z" fill="black"/>
<path d="M40.1992 33.5661C42.3653 33.5661 44.1277 31.742 44.1277 29.5C44.1277 27.258 42.3653 25.434 40.1992 25.434C38.033 25.434 36.2705 27.258 36.2705 29.5C36.2705 31.742 38.0329 33.5661 40.1992 33.5661V33.5661ZM40.1992 27.1625C41.4446 27.1625 42.4576 28.2111 42.4576 29.5C42.4576 30.7889 41.4445 31.8376 40.1992 31.8376C38.9539 31.8376 37.9407 30.7889 37.9407 29.5C37.9407 28.2111 38.9537 27.1625 40.1992 27.1625V27.1625Z" fill="black"/>
<path d="M18.7539 29.5C18.7539 31.742 20.5163 33.5661 22.6825 33.5661C24.8486 33.5661 26.611 31.742 26.611 29.5C26.611 27.258 24.8486 25.434 22.6825 25.434C20.5163 25.434 18.7539 27.258 18.7539 29.5V29.5ZM22.6825 27.1625C23.9278 27.1625 24.9409 28.2111 24.9409 29.5C24.9409 30.7889 23.9278 31.8376 22.6825 31.8376C21.4371 31.8376 20.424 30.7889 20.424 29.5C20.424 28.2111 21.4371 27.1625 22.6825 27.1625Z" fill="black"/>
<path d="M36.6027 20.4951C36.5487 19.23 35.5272 18.2387 34.277 18.2387H24.8465C24.2269 18.2387 23.6256 18.5046 23.1972 18.968C22.7627 19.4381 22.5385 20.0556 22.5663 20.7068C22.6201 21.9721 23.6416 22.9633 24.8918 22.9633H34.3224C34.942 22.9633 35.5432 22.6975 35.9715 22.2341C36.4063 21.7641 36.6304 21.1465 36.6027 20.4951ZM34.7651 21.039C34.6483 21.1653 34.4912 21.2348 34.3224 21.2348H24.8918C24.5436 21.2348 24.2489 20.9638 24.2347 20.6306C24.2272 20.4552 24.2872 20.2891 24.4038 20.163C24.5205 20.0367 24.6777 19.9672 24.8463 19.9672H34.2768C34.625 19.9672 34.9198 20.2383 34.934 20.5713C34.9416 20.7469 34.8816 20.913 34.7651 21.039Z" fill="black"/>
<path d="M24.8919 40.9186H34.3225C34.9421 40.9186 35.5433 40.6528 35.9716 40.1894C36.4063 39.7194 36.6304 39.1018 36.6027 38.4504C36.5487 37.1852 35.5272 36.194 34.277 36.194H24.8465C24.2269 36.194 23.6256 36.4598 23.1972 36.9233C22.7627 37.3934 22.5385 38.0109 22.5663 38.6621C22.6201 39.9274 23.6417 40.9186 24.8919 40.9186V40.9186ZM24.4039 38.1183C24.5206 37.992 24.6778 37.9225 24.8465 37.9225H34.277C34.6251 37.9225 34.9199 38.1935 34.9341 38.5266C34.9415 38.7021 34.8815 38.8682 34.765 38.9943C34.6482 39.1206 34.4911 39.1901 34.3223 39.1901H24.8917C24.5435 39.1901 24.2488 38.9191 24.2345 38.5859C24.2272 38.4104 24.2873 38.2444 24.4039 38.1183V38.1183Z" fill="black"/>
</g>
<defs>
<clipPath id="clip0_0_305">
<rect width="57.0048" height="59" fill="white" transform="translate(0.463379)"/>
</clipPath>
</defs>
</svg>
