<svg width="58" height="58" viewBox="0 0 58 58" fill="none" xmlns="http://www.w3.org/2000/svg">
<g clip-path="url(#clip0_0_693)">
<path d="M41.0269 23.0299C38.0306 9.66246 30.9513 5.27932 30.1906 3.5996C29.3551 2.4083 28.4555 0.155457 28.4555 0.155457C28.4466 0.202316 28.4466 0.231152 28.4377 0.278011V0.306848C28.4377 0.344695 28.4288 0.362718 28.4288 0.400566V0.438414H28.4199V0.559166H28.411C28.411 0.577189 28.411 0.606025 28.4021 0.615037V0.670907C28.4021 0.68893 28.4021 0.708755 28.3932 0.717766V0.764625C28.3932 0.793462 28.3932 0.820496 28.3843 0.840321V0.849332C28.3827 0.890713 28.3767 0.931801 28.3665 0.971887V0.98991C28.3576 0.998921 28.3576 1.00793 28.3576 1.01875V1.05659H28.3487V1.11246H28.3398V1.15031H28.3219V1.20618H28.313V1.25304H28.3041V1.29089H28.2952V1.32874H28.2863V1.36659H28.2774V1.40443H28.2685V1.43327H28.2596V1.47112H28.2507V1.50897H28.2418C28.2329 1.50897 28.2329 1.51798 28.2329 1.51798V1.536L28.224 1.55402C28.224 1.57204 28.2151 1.59187 28.2061 1.60989C28.1972 1.6189 28.1972 1.6189 28.1972 1.62792V1.64594H28.1883V1.66396H28.1705V1.71082H28.1527V1.73966H28.1438V1.74867H28.1349V1.76669H28.126V1.79553H28.1171V1.81355H28.0993V1.84239H28.0904V1.86041H28.0814V1.87843H28.0725V1.90727H28.0636V1.92529H28.0547V1.9343H28.0458V1.95232H28.028V1.98116H28.0191V1.99017H28.0102V2.0082H28.0013V2.03703H27.9924V2.04604H27.9835V2.06407H27.9746V2.07308H27.9657V2.10191H27.9478V2.11092H27.9389V2.12895H27.93V2.13796H27.9211V2.15598H27.9122V2.174C27.9033 2.174 27.9033 2.18302 27.9033 2.18302V2.19203H27.8944L27.8659 2.23889C27.8659 2.23889 27.8481 2.25691 27.8481 2.26772C27.8392 2.26772 27.8392 2.27673 27.8392 2.27673V2.28575H27.8303V2.29476H27.8214V2.31278H27.8035V2.32179H27.7946V2.3308H27.7857V2.35784H27.7768V2.36685H27.7679V2.37586H27.759V2.39388H27.7501V2.37586H27.7323V2.38487H27.7234V2.40289H27.7145V2.42092H27.7056V2.42993H27.6967V2.43894H27.6878V2.44795H27.6789V2.46597H27.661V2.47498H27.6521V2.49301H27.6432V2.50202H27.6343V2.51103H27.6254V2.53987H27.6165V2.54888H27.6076V2.55789H27.5987V2.5669H27.5898V2.57591H27.572V2.59393H27.5631V2.60295H27.5542V2.61196H27.5452V2.62998H27.5363V2.63899H27.5185V2.648H27.5096V2.65701H27.5007V2.67504H27.4918V2.69306H27.4829V2.70207H27.474V2.71108H27.4562V2.72009H27.4473V2.7291H27.4384V2.74713H27.4295V2.75614H27.4205V2.77416H27.4116V2.78317H27.4027V2.79218H27.3938V2.8012H27.3849V2.81021H27.3671V2.81922C27.3582 2.81922 27.3582 2.82823 27.3582 2.82823L27.3493 2.83724L27.3404 2.84625V2.86428H27.3315V2.87329H27.3226V2.8823H27.3137V2.89131H27.3048L27.2869 2.90933V2.91834C27.2691 2.92736 27.2691 2.93637 27.2495 2.95619C27.2495 2.95619 27.2317 2.97421 27.221 2.97421C27.1925 2.99224 27.1569 3.03009 27.1284 3.05892C27.1106 3.06793 27.091 3.08776 27.0732 3.09677C27.0358 3.13462 26.9984 3.16165 26.9609 3.19049C26.9057 3.24636 26.8487 3.28421 26.7846 3.34008H26.7757L26.3392 3.72576H26.3303C25.9313 4.08261 25.4574 4.54219 24.9195 5.08648L24.8731 5.13334C21.6435 8.51261 16.5504 15.5613 16.0214 26.9481C15.9661 27.8871 15.975 28.8062 16.0303 29.6983V29.7164C16.2904 34.204 17.6816 38.0339 19.4256 41.15C20.1115 42.39 20.8632 43.5164 21.6239 44.5293C24.2407 48.0221 26.9128 50.0965 27.5898 50.6029C28.639 53.0522 28.5446 57.2768 28.5446 57.2768L30.0748 57.7922C30.0748 57.7922 29.7595 53.7083 30.196 51.7276C30.3349 51.1166 30.6502 50.5921 31.0225 50.1416C31.2826 49.9631 32.0255 49.4188 32.9162 48.5934C32.9625 48.5465 32.991 48.5087 33.0284 48.4618C36.6375 45.0537 43.3837 36.6623 41.0732 22.9957L41.0269 23.0299Z" fill="#5EA149"/>
</g>
<defs>
<clipPath id="clip0_0_693">
<rect width="57.0048" height="57.6728" fill="white" transform="translate(0.222168 0.153687)"/>
</clipPath>
</defs>
</svg>
