<svg width="58" height="67" viewBox="0 0 58 67" fill="none" xmlns="http://www.w3.org/2000/svg">
<g clip-path="url(#clip0_0_649)">
<path d="M28.8789 65.5275C28.0264 65.5275 27.1611 65.2973 26.4104 64.8626L18.5595 60.1956C17.3889 59.5307 17.9615 59.3005 18.3432 59.1727C19.9083 58.6228 20.2264 58.5078 21.8933 57.5488C22.0714 57.4465 22.3005 57.4849 22.4786 57.5999L28.5099 61.1929C28.7262 61.3208 29.0316 61.3208 29.2352 61.1929L52.737 47.5626C52.9533 47.4347 53.0932 47.179 53.0932 46.9233V19.6626C53.0932 19.3941 52.9533 19.1512 52.7242 19.0105L29.2352 5.39301C29.0189 5.26514 28.7262 5.26514 28.5099 5.39301L5.0336 19.0233C4.80456 19.1512 4.66459 19.4069 4.66459 19.6754V46.9233C4.66459 47.179 4.80456 47.4347 5.0336 47.5498L11.4721 51.2834C14.9713 53.0352 17.1089 50.9766 17.1089 48.8924V21.9898C17.1089 21.6062 17.4143 21.3121 17.7961 21.3121H20.7735C21.1425 21.3121 21.4607 21.6062 21.4607 21.9898V48.9052C21.4607 53.585 18.9158 56.2701 14.5005 56.2701C13.139 56.2701 12.0701 56.2701 9.09265 54.7869L2.93409 51.2195C1.40717 50.3372 0.465576 48.6878 0.465576 46.9105V19.6626C0.465576 17.8981 1.40717 16.2359 2.93409 15.3536L26.4104 1.72331C27.8991 0.879402 29.8714 0.879402 31.3474 1.72331L54.8492 15.3664C56.3761 16.2487 57.3177 17.8981 57.3177 19.6754V46.9233C57.3177 48.6878 56.3761 50.3372 54.8492 51.2323L31.3474 64.8626C30.5967 65.2973 29.7442 65.5275 28.8789 65.5275ZM47.8508 38.6632C47.8508 33.5615 44.4153 32.2061 37.2006 31.2471C29.8969 30.2754 29.1589 29.7767 29.1589 28.0633C29.1589 26.644 29.7823 24.7516 35.1902 24.7516C40.0127 24.7516 41.7941 25.8001 42.5321 29.0734C42.5957 29.3803 42.8756 29.6105 43.1937 29.6105H46.2476C46.4384 29.6105 46.6166 29.5338 46.7438 29.3931C46.8711 29.2524 46.9347 29.0607 46.922 28.8689C46.4512 23.2301 42.7229 20.6088 35.1902 20.6088C28.4845 20.6088 24.489 23.4474 24.489 28.2168C24.489 33.3825 28.4717 34.8145 34.8975 35.4539C42.5957 36.2083 43.1937 37.3463 43.1937 38.8678C43.1937 41.5018 41.0815 42.627 36.1318 42.627C29.9096 42.627 28.5481 41.0543 28.09 37.9472C28.0391 37.6148 27.7592 37.3718 27.4156 37.3718H24.3745C23.9928 37.3718 23.7001 37.6787 23.7001 38.0495C23.7001 42.0261 25.8505 46.7698 36.1445 46.7698C43.5755 46.757 47.8508 43.8034 47.8508 38.6632Z" fill="#659C4F"/>
</g>
<defs>
<clipPath id="clip0_0_649">
<rect width="57.0048" height="65.4664" fill="white" transform="translate(0.376709 0.57251)"/>
</clipPath>
</defs>
</svg>
