<svg width="17" height="17" viewBox="0 0 17 17" fill="none" xmlns="http://www.w3.org/2000/svg">
<path d="M12.6383 16.505H12.615C9.41895 16.4262 6.36899 15.1479 4.06926 12.9234C1.84756 10.6219 0.570668 7.56799 0.491791 4.36753C0.487085 3.91919 0.662822 3.48782 0.979408 3.17086L3.23731 0.910859C3.56219 0.585541 4.08881 0.585541 4.41368 0.910859L7.74147 4.24419C8.06625 4.56961 8.06625 5.09711 7.74147 5.42253L6.41368 6.75002C6.65995 7.67163 7.11358 8.52452 7.73981 9.24336C8.45615 9.87085 9.30654 10.3255 10.2257 10.5725L11.5568 9.24419C11.8817 8.91887 12.4083 8.91887 12.7332 9.24419L16.0609 12.5775C16.3857 12.9029 16.3857 13.4304 16.0609 13.7559L13.803 16.0167C13.4952 16.3283 13.076 16.504 12.6383 16.505ZM3.82383 2.67919H3.81967L2.15578 4.34919C2.22362 7.11474 3.32577 9.75394 5.24397 11.7442C7.23101 13.6649 9.8653 14.7688 12.6258 14.8375L14.2955 13.1667L12.1391 11.0125L11.0634 12.0892C10.9096 12.2451 10.6999 12.333 10.4811 12.3334C10.4226 12.3334 10.3644 12.3272 10.3072 12.315C8.92087 12.0078 7.63364 11.3571 6.56344 10.4225C5.63037 9.35053 4.98075 8.06117 4.67408 6.67252C4.61623 6.3965 4.7017 6.10989 4.90121 5.91086L5.97608 4.83336L3.82383 2.67919Z" fill="white"/>
</svg>
