<svg width="23" height="25" viewBox="0 0 23 25" fill="none" xmlns="http://www.w3.org/2000/svg">
<path d="M17.3771 24.2575H17.3451C12.9557 24.1393 8.76694 22.2218 5.60853 18.885C2.5573 15.4328 0.803644 10.8519 0.695317 6.05123C0.688853 5.37872 0.930207 4.73168 1.365 4.25623L4.46596 0.866227C4.91213 0.37825 5.63539 0.37825 6.08156 0.866227L10.6519 5.86623C11.0979 6.35435 11.0979 7.1456 10.6519 7.63373L8.82832 9.62498C9.16653 11.0074 9.78954 12.2867 10.6496 13.365C11.6334 14.3062 12.8013 14.9883 14.0636 15.3587L15.8917 13.3662C16.3379 12.8783 17.0612 12.8783 17.5073 13.3662L22.0777 18.3662C22.5237 18.8544 22.5237 19.6456 22.0777 20.1337L18.9767 23.525C18.5539 23.9924 17.9782 24.256 17.3771 24.2575ZM5.27147 3.51873H5.26576L2.98061 6.02373C3.07378 10.172 4.58744 14.1309 7.22186 17.1162C9.95082 19.9973 13.5687 21.6531 17.36 21.7562L19.6531 19.25L16.6915 16.0187L15.2142 17.6337C15.0029 17.8675 14.7149 17.9994 14.4144 18C14.3341 18 14.2541 17.9908 14.1756 17.9725C12.2716 17.5117 10.5038 16.5357 9.03398 15.1337C7.75253 13.5257 6.86036 11.5917 6.43919 9.50873C6.35974 9.09468 6.47711 8.66477 6.75111 8.36623L8.22732 6.74998L5.27147 3.51873Z" fill="black"/>
</svg>
