<svg width="28" height="30" viewBox="0 0 28 30" fill="none" xmlns="http://www.w3.org/2000/svg">
<path d="M20.3771 26.2575H20.3451C15.9557 26.1393 11.7669 24.2218 8.60853 20.885C5.5573 17.4328 3.80364 12.8519 3.69532 8.05123C3.68885 7.37872 3.93021 6.73168 4.365 6.25623L7.46596 2.86623C7.91213 2.37825 8.63539 2.37825 9.08156 2.86623L13.6519 7.86623C14.0979 8.35435 14.0979 9.1456 13.6519 9.63373L11.8283 11.625C12.1665 13.0074 12.7895 14.2867 13.6496 15.365C14.6334 16.3062 15.8013 16.9883 17.0636 17.3587L18.8917 15.3662C19.3379 14.8783 20.0612 14.8783 20.5073 15.3662L25.0777 20.3662C25.5237 20.8544 25.5237 21.6456 25.0777 22.1337L21.9767 25.525C21.5539 25.9924 20.9782 26.256 20.3771 26.2575ZM8.27147 5.51873H8.26576L5.98061 8.02373C6.07378 12.172 7.58744 16.1309 10.2219 19.1162C12.9508 21.9973 16.5687 23.6531 20.36 23.7562L22.6531 21.25L19.6915 18.0187L18.2142 19.6337C18.0029 19.8675 17.7149 19.9994 17.4144 20C17.3341 20 17.2541 19.9908 17.1756 19.9725C15.2716 19.5117 13.5038 18.5357 12.034 17.1337C10.7525 15.5257 9.86036 13.5917 9.43919 11.5087C9.35974 11.0947 9.47711 10.6648 9.75111 10.3662L11.2273 8.74998L8.27147 5.51873Z" fill="black"/>
</svg>
