<svg width="58" height="58" viewBox="0 0 58 58" fill="none" xmlns="http://www.w3.org/2000/svg">
<g clip-path="url(#clip0_0_704)">
<path d="M28.8448 23.9282C26.0954 23.9282 23.8582 26.1925 23.8582 28.9744C23.8582 31.7571 26.0954 34.0206 28.8448 34.0206C31.5953 34.0206 33.8326 31.7571 33.8326 28.9744C33.8326 26.1927 31.5953 23.9282 28.8448 23.9282Z" fill="#3098BF"/>
<path d="M57.3464 29.5988C57.3846 27.8515 56.6419 26.1708 55.1396 24.6033C55.1396 24.6024 55.1396 24.5993 55.1396 24.5993C55.1396 23.1092 53.9415 21.8971 52.4676 21.8971C52.2183 21.8971 51.9711 21.9317 51.7317 22.0033C50.8104 21.4652 49.8015 20.9649 48.7281 20.5112C48.0128 20.2095 47.2013 19.9076 46.2641 19.5938C48.2688 12.2484 47.5358 6.83603 44.2231 4.68865C40.7515 2.43303 35.0071 4.42162 28.8449 10.0804C22.6846 4.42472 16.9462 2.42828 13.4667 4.68865C11.3589 6.05465 10.2736 8.75799 10.3149 12.5225C9.65552 13.0277 9.25917 13.8151 9.25917 14.6648C9.25917 15.738 9.88518 16.689 10.8282 17.1208C10.9429 17.6886 11.0862 18.3032 11.263 18.9813C4.39426 21.0859 0.427978 24.4792 0.344629 28.3498C0.269038 31.8285 3.32967 35.0568 8.96095 37.4365C9.68024 37.7422 10.4966 38.045 11.4407 38.3597C11.1747 39.3198 10.9696 40.1734 10.8156 40.9577C9.62828 47.0146 10.5702 51.3836 13.4679 53.2629C16.9583 55.5185 22.6897 53.523 28.8461 47.8682C33.2981 51.9564 37.548 54.201 40.8606 54.203C42.1284 54.203 43.2599 53.8873 44.2254 53.2619C47.1221 51.3836 48.0631 47.0146 46.8758 40.9577C46.7591 40.3631 46.6079 39.7078 46.4176 38.9743C53.2919 36.8678 57.263 33.4727 57.3464 29.5988ZM14.917 50.9678C13.0723 49.7725 12.5247 46.2273 13.4538 41.486C13.5902 40.792 13.7748 40.0227 14.0162 39.1489C16.5753 39.84 19.3738 40.3601 22.354 40.6956C23.8297 42.6156 25.3556 44.3866 26.8981 45.9731C21.93 50.4984 17.2543 52.4808 14.917 50.9678ZM14.917 6.98004C17.2475 5.47696 21.93 7.45058 26.8981 11.9766C25.4213 13.4945 23.9612 15.1782 22.552 16.993C19.4571 17.2185 16.5497 17.6472 13.8915 18.2727C13.7688 17.7863 13.6561 17.3008 13.5531 16.8034C14.2036 16.2991 14.6 15.5099 14.6 14.665C14.6 13.5888 13.964 12.6298 13.0261 12.2C13.027 10.272 13.3873 7.97168 14.917 6.98004ZM14.8022 36.5462C15.3135 35.0491 15.9227 33.5163 16.6215 31.9705C17.2937 33.1797 18.0011 34.3719 18.7341 35.5286C19.1775 36.2304 19.6417 36.9333 20.1362 37.6511C18.2435 37.3573 16.4575 36.9879 14.8022 36.5462ZM18.7351 22.4202C17.9982 23.5847 17.2928 24.7711 16.6314 25.9604C15.8739 24.2658 15.2184 22.5781 14.6718 20.9162C16.4616 20.4993 18.3722 20.1726 20.3797 19.9413C19.8106 20.7603 19.261 21.5902 18.7351 22.4202ZM18.0923 28.9654C19 27.2103 19.9772 25.5057 21.0007 23.8886C21.8858 22.4908 22.875 21.0622 23.9425 19.6347C25.6282 19.5394 27.3258 19.5106 29.0469 19.5504C30.6699 19.5861 32.3008 19.6794 33.8943 19.8313C34.9061 21.1944 35.846 22.5563 36.69 23.8877C37.7125 25.5039 38.6907 27.2114 39.5974 28.9656C38.6799 30.7467 37.7026 32.4591 36.69 34.0595C35.8 35.4642 34.8128 36.8928 33.7491 38.3124C32.0643 38.4057 30.3686 38.4336 28.6426 38.3958C27.0237 38.3621 25.3947 38.2677 23.7952 38.1159C22.7815 36.7519 21.8436 35.3877 21.0007 34.0595C19.9892 32.462 19.0117 30.7494 18.0923 28.9654ZM37.3093 38.0074C37.8794 37.1844 38.4318 36.3554 38.9548 35.5286C39.6887 34.369 40.3972 33.1768 41.0674 31.9687C41.8347 33.6742 42.498 35.3669 43.0427 37.0258C41.246 37.4465 39.3257 37.7751 37.3093 38.0074ZM38.9548 22.4202C38.5063 21.7114 38.0423 21.0085 37.5516 20.2967C39.4316 20.5886 41.2117 20.9569 42.867 21.3977C42.3557 22.8918 41.7502 24.4206 41.0585 25.9613C40.3992 24.7751 39.6947 23.5898 38.9548 22.4202ZM43.653 18.7938C41.0928 18.1039 38.2992 17.5877 35.3358 17.2531C33.8601 15.3332 32.3351 13.5622 30.7917 11.9777C35.7598 7.45167 40.4462 5.47806 42.7737 6.98113C44.9678 8.40353 45.2868 12.7945 43.653 18.7938ZM29.1059 16.828C28.5869 16.8171 28.0697 16.8113 27.5575 16.8113C27.0924 16.8113 26.6302 16.8153 26.1719 16.8251C27.0502 15.7847 27.9441 14.7969 28.8469 13.8726C29.7859 14.8365 30.7132 15.861 31.616 16.9363C30.7309 16.8817 29.8997 16.847 29.1059 16.828ZM12.0212 21.626C12.7816 23.955 13.8042 26.424 15.0631 28.9804C13.915 31.3174 12.9622 33.5928 12.2283 35.7569C11.3786 35.4729 10.6456 35.198 9.99704 34.925C5.58821 33.0616 2.98491 30.6264 3.03398 28.4086C3.08792 25.8522 6.43306 23.3395 12.0212 21.626ZM28.5858 41.1198C29.5739 41.1406 30.5552 41.1426 31.5198 41.1227C30.6416 42.1631 29.7467 43.1518 28.8449 44.0781C27.9087 43.1181 26.9814 42.0936 26.0749 41.0125C26.9717 41.0671 27.792 41.1019 28.5858 41.1198ZM35.1377 40.957C38.2335 40.7327 41.1479 40.3017 43.817 39.6724C43.9907 40.3445 44.1291 40.9411 44.237 41.4872C45.1663 46.2266 44.6207 49.7718 42.7759 50.968C40.4405 52.4809 35.7608 50.4955 30.7928 45.9746C32.2676 44.4583 33.7257 42.7757 35.1377 40.957ZM45.6469 36.3277C44.8765 33.962 43.863 31.4959 42.6256 28.9784C43.7697 26.6563 44.7255 24.379 45.4674 22.1949C46.322 22.4819 47.0413 22.7498 47.6918 23.024C48.4562 23.3487 49.1804 23.6971 49.8535 24.0634C49.8161 24.2401 49.7975 24.4188 49.7975 24.5986C49.7975 26.0878 50.9967 27.2999 52.4676 27.2999C52.8816 27.2999 53.2859 27.2017 53.6511 27.0159C54.337 27.8747 54.6745 28.7214 54.656 29.5406C54.6038 32.0986 51.2509 34.6123 45.6469 36.3277Z" fill="#3098BF"/>
</g>
<defs>
<clipPath id="clip0_0_704">
<rect width="57.0048" height="57.6728" fill="white" transform="translate(0.343018 0.153687)"/>
</clipPath>
</defs>
</svg>
