<svg width="58" height="59" viewBox="0 0 58 59" fill="none" xmlns="http://www.w3.org/2000/svg">
<g clip-path="url(#clip0_0_635)">
<path d="M28.724 24.2572C25.9746 24.2572 23.7373 26.5216 23.7373 29.3034C23.7373 32.0862 25.9746 34.3496 28.724 34.3496C31.4745 34.3496 33.7117 32.0862 33.7117 29.3034C33.7117 26.5218 31.4745 24.2572 28.724 24.2572Z" fill="#82D7F7"/>
<path d="M57.2255 29.9279C57.2638 28.1806 56.521 26.4999 55.0188 24.9324C55.0188 24.9315 55.0188 24.9284 55.0188 24.9284C55.0188 23.4383 53.8207 22.2261 52.3467 22.2261C52.0974 22.2261 51.8503 22.2608 51.6109 22.3324C50.6895 21.7943 49.6807 21.294 48.6072 20.8402C47.8919 20.5385 47.0804 20.2366 46.1432 19.9229C48.1479 12.5774 47.4149 7.16508 44.1022 5.0177C40.6306 2.76209 34.8862 4.75067 28.724 10.4094C22.5638 4.75377 16.8254 2.75734 13.3458 5.0177C11.2381 6.3837 10.1528 9.08704 10.1941 12.8516C9.53467 13.3568 9.13832 14.1442 9.13832 14.9938C9.13832 16.0671 9.76433 17.018 10.7073 17.4499C10.8221 18.0177 10.9653 18.6323 11.1421 19.3103C4.27341 21.415 0.307128 24.8083 0.22378 28.6788C0.148188 32.1575 3.20882 35.3858 8.8401 37.7656C9.55939 38.0713 10.3757 38.3741 11.3198 38.6888C11.0539 39.6488 10.8488 40.5025 10.6947 41.2868C9.50743 47.3436 10.4493 51.7127 13.3471 53.5919C16.8374 55.8475 22.5688 53.852 28.7253 48.1973C33.1772 52.2854 37.4271 54.5301 40.7398 54.5321C42.0075 54.5321 43.139 54.2163 44.1046 53.591C47.0012 51.7127 47.9422 47.3436 46.755 41.2868C46.6383 40.6921 46.4871 40.0369 46.2967 39.3033C53.171 37.1968 57.1422 33.8017 57.2255 29.9279ZM14.7961 51.2969C12.9514 50.1015 12.4039 46.5564 13.333 41.815C13.4694 41.1211 13.6539 40.3517 13.8953 39.478C16.4544 40.169 19.2529 40.6892 22.2331 41.0247C23.7088 42.9446 25.2347 44.7157 26.7772 46.3021C21.8091 50.8274 17.1335 52.8098 14.7961 51.2969ZM14.7961 7.30909C17.1266 5.80602 21.8091 7.77963 26.7772 12.3057C25.3004 13.8235 23.8404 15.5073 22.4312 17.3221C19.3363 17.5475 16.4288 17.9763 13.7707 18.6018C13.648 18.1153 13.5352 17.6298 13.4322 17.1325C14.0828 16.6282 14.4791 15.8389 14.4791 14.994C14.4791 13.9179 13.8432 12.9589 12.9053 12.5291C12.9062 10.6011 13.2664 8.30074 14.7961 7.30909ZM14.6814 36.8752C15.1927 35.3782 15.8019 33.8453 16.5006 32.2996C17.1728 33.5088 17.8802 34.701 18.6132 35.8577C19.0566 36.5594 19.5208 37.2623 20.0153 37.9802C18.1227 37.6863 16.3366 37.3169 14.6814 36.8752ZM18.6143 22.7492C17.8773 23.9137 17.1719 25.1001 16.5105 26.2894C15.753 24.5949 15.0976 22.9071 14.5509 21.2452C16.3408 20.8284 18.2513 20.5016 20.2589 20.2704C19.6897 21.0894 19.1402 21.9193 18.6143 22.7492ZM17.9715 29.2945C18.8791 27.5394 19.8564 25.8348 20.8799 24.2176C21.7649 22.8199 22.7541 21.3913 23.8216 19.9638C25.5073 19.8685 27.205 19.8396 28.9261 19.8794C30.549 19.9152 32.1799 20.0085 33.7735 20.1603C34.7852 21.5234 35.7252 22.8854 36.5691 24.2167C37.5917 25.833 38.5698 27.5405 39.4766 29.2947C38.559 31.0757 37.5817 32.7882 36.5691 34.3885C35.6791 35.7932 34.692 37.2218 33.6283 38.6415C31.9434 38.7348 30.2478 38.7627 28.5218 38.7249C26.9028 38.6911 25.2739 38.5968 23.6744 38.4449C22.6607 37.0809 21.7227 35.7167 20.8799 34.3885C19.8683 32.7911 18.8909 31.0785 17.9715 29.2945ZM37.1884 38.3365C37.7585 37.5135 38.311 36.6845 38.834 35.8577C39.5679 34.6981 40.2763 33.5058 40.9465 32.2977C41.7138 34.0032 42.3772 35.6959 42.9218 37.3549C41.1251 37.7756 39.2049 38.1041 37.1884 38.3365ZM38.834 22.7492C38.3855 22.0405 37.9214 21.3376 37.4307 20.6258C39.3108 20.9176 41.0909 21.2859 42.7461 21.7267C42.2348 23.2209 41.6294 24.7497 40.9377 26.2904C40.2783 25.1041 39.5738 23.9188 38.834 22.7492ZM43.5322 19.1229C40.972 18.4329 38.1783 17.9168 35.215 17.5822C33.7392 15.6622 32.2142 13.8912 30.6708 12.3067C35.6389 7.78073 40.3254 5.80711 42.6528 7.31019C44.847 8.73259 45.1659 13.1235 43.5322 19.1229ZM28.9851 17.1571C28.466 17.1462 27.9488 17.1403 27.4366 17.1403C26.9715 17.1403 26.5093 17.1443 26.0511 17.1542C26.9293 16.1138 27.8232 15.126 28.726 14.2017C29.665 15.1656 30.5923 16.1901 31.4951 17.2653C30.61 17.2108 29.7789 17.1761 28.9851 17.1571ZM11.9004 21.9551C12.6608 24.2841 13.6834 26.7531 14.9422 29.3095C13.7941 31.6465 12.8414 33.9218 12.1075 36.086C11.2578 35.802 10.5248 35.5271 9.87619 35.254C5.46736 33.3907 2.86406 30.9555 2.91313 28.7376C2.96707 26.1812 6.31221 23.6686 11.9004 21.9551ZM28.465 41.4489C29.4531 41.4697 30.4343 41.4717 31.3989 41.4518C30.5207 42.4922 29.6259 43.4809 28.724 44.4072C27.7879 43.4471 26.8606 42.4226 25.954 41.3415C26.8508 41.3961 27.6712 41.431 28.465 41.4489ZM35.0169 41.2861C38.1127 41.0617 41.027 40.6308 43.6962 40.0015C43.8699 40.6735 44.0083 41.2702 44.1161 41.8163C45.0454 46.5557 44.4999 50.1008 42.655 51.2971C40.3196 52.81 35.64 50.8245 30.6719 46.3036C32.1467 44.7874 33.6048 43.1047 35.0169 41.2861ZM45.526 36.6567C44.7557 34.2911 43.7422 31.825 42.5047 29.3075C43.6489 26.9854 44.6047 24.7081 45.3465 22.524C46.2011 22.8109 46.9204 23.0789 47.571 23.353C48.3354 23.6777 49.0595 24.0262 49.7326 24.3925C49.6953 24.5692 49.6767 24.7479 49.6767 24.9276C49.6767 26.4168 50.8759 27.629 52.3467 27.629C52.7608 27.629 53.1651 27.5308 53.5302 27.345C54.2161 28.2037 54.5537 29.0505 54.5351 29.8696C54.483 32.4277 51.1301 34.9414 45.526 36.6567Z" fill="#82D7F7"/>
</g>
<defs>
<clipPath id="clip0_0_635">
<rect width="57.0048" height="57.6728" fill="white" transform="translate(0.222168 0.482742)"/>
</clipPath>
</defs>
</svg>
