<svg width="58" height="59" viewBox="0 0 58 59" fill="none" xmlns="http://www.w3.org/2000/svg">
<g clip-path="url(#clip0_0_257)">
<path d="M9.01074 16.6757H56.2802V52.8484H9.01074V16.6757Z" fill="#FFC857"/>
<path d="M32.9657 34.7464C32.9657 36.929 34.7983 38.699 37.0597 38.699H39.341C43.3872 38.699 46.6684 41.8669 46.6684 45.7735C46.6684 49.6812 43.3872 52.8479 39.341 52.8479H9.01074V16.676H42.2737C46.311 16.676 49.5844 19.8358 49.5844 23.7343C49.5844 27.6328 46.311 30.7937 42.2737 30.7937H37.0597C34.7983 30.7937 32.9657 32.5626 32.9657 34.7464Z" fill="#FAF7F5"/>
<path d="M9.01074 6.15179H56.2802V16.6756H9.01074V6.15179Z" fill="#9D9AE8"/>
<path d="M9.00732 28.7622L16.1725 21.3462L27.3924 32.9588L20.2272 40.3748L9.00732 28.7622Z" fill="#FFC857"/>
<path d="M9.01081 28.7634L4.95545 32.9607L8.91895 37.0628L2.11927 44.1005C1.25972 44.9901 1.25972 46.4326 2.11927 47.3223L2.30109 47.5105C3.16064 48.4001 4.5544 48.4001 5.41395 47.5105L12.2136 40.4728L16.1771 44.575L20.2325 40.3777L9.01081 28.7634Z" fill="#9D9AE8"/>
<path d="M15.0104 12.5577C15.6256 12.5577 16.1243 12.0416 16.1243 11.4048C16.1243 10.7681 15.6256 10.2519 15.0104 10.2519C14.3952 10.2519 13.8965 10.7681 13.8965 11.4048C13.8965 12.0416 14.3952 12.5577 15.0104 12.5577Z" fill="black"/>
<path d="M19.4665 12.5577C20.0817 12.5577 20.5804 12.0416 20.5804 11.4048C20.5804 10.7681 20.0817 10.2519 19.4665 10.2519C18.8513 10.2519 18.3525 10.7681 18.3525 11.4048C18.3525 12.0416 18.8513 12.5577 19.4665 12.5577Z" fill="black"/>
<path d="M23.9225 12.5577C24.5377 12.5577 25.0365 12.0416 25.0365 11.4048C25.0365 10.7681 24.5377 10.2519 23.9225 10.2519C23.3073 10.2519 22.8086 10.7681 22.8086 11.4048C22.8086 12.0416 23.3073 12.5577 23.9225 12.5577Z" fill="black"/>
<path d="M56.2674 4.98785H37.6313C37.0165 4.98785 36.5179 5.50377 36.5179 6.14023C36.5179 6.77669 37.0165 7.2926 37.6313 7.2926H55.154V15.5169H10.0879V7.2926H27.6105C28.2255 7.2926 28.7239 6.77669 28.7239 6.14023C28.7239 5.50377 28.2255 4.98785 27.6105 4.98785H8.97445C8.35951 4.98785 7.86104 5.50377 7.86104 6.14023V28.2854L4.12969 32.1473C3.92092 32.3633 3.80357 32.6565 3.80357 32.9621C3.80357 33.2677 3.92092 33.5609 4.12969 33.777L7.30779 37.0663L1.38314 43.1984C0.0402568 44.5883 0.0402568 46.8498 1.38314 48.24C2.05463 48.9348 2.93656 49.2823 3.8186 49.2823C4.70053 49.2823 5.58257 48.9348 6.25406 48.2398L7.86104 46.5766V52.8597C7.86104 53.4962 8.35951 54.0121 8.97445 54.0121H56.2673C56.8821 54.0121 57.3807 53.4962 57.3807 52.8597V6.14023C57.3808 5.50377 56.8822 4.98785 56.2674 4.98785V4.98785ZM15.3847 29.6065C15.6021 29.8316 15.887 29.944 16.172 29.944C16.4569 29.944 16.7419 29.8316 16.9592 29.6065L19.7568 26.711L22.1839 29.2231L19.3864 32.1186C18.9516 32.5686 18.9516 33.2983 19.3864 33.7484C19.6038 33.9734 19.8887 34.0859 20.1736 34.0859C20.4586 34.0859 20.7436 33.9734 20.9609 33.7484L23.7585 30.8528L25.7966 32.9622L20.2014 38.7533L10.5488 28.7629L16.144 22.9719L18.1821 25.0814L15.3847 27.9768C14.9499 28.4268 14.9499 29.1565 15.3847 29.6065V29.6065ZM8.97434 30.3927L18.6269 40.3831L16.1442 42.9526L6.49167 32.9622L8.97434 30.3927ZM4.67949 46.6101C4.20484 47.1016 3.43247 47.1015 2.95783 46.6101C2.48318 46.1188 2.48307 45.3194 2.95783 44.8281L8.88259 38.696L10.6043 40.4779L4.67949 46.6101ZM10.0879 44.2719L12.1787 42.1078L15.3568 45.3972C15.5657 45.6132 15.8488 45.7347 16.1441 45.7347C16.4394 45.7347 16.7226 45.6132 16.9314 45.3972L28.1584 33.7771C28.5932 33.3271 28.5932 32.5974 28.1584 32.1474L16.9315 20.5273C16.4967 20.0774 15.7917 20.0774 15.3569 20.5273L10.0879 25.9807V17.8216H42.2538V17.8224C45.6729 17.8224 48.4545 20.4734 48.4545 23.7318C48.4545 26.9908 45.6729 29.6423 42.2538 29.6423H37.0371C34.1646 29.6423 31.8277 31.9333 31.8277 34.7493C31.8277 37.5654 34.1646 39.8563 37.0371 39.8563H39.3195C42.7479 39.8563 45.5371 42.5145 45.5371 45.7819C45.5371 49.0493 42.7479 51.7075 39.3195 51.7075H10.0879V44.2719ZM45.1713 51.7073C46.7682 50.2096 47.7641 48.1074 47.7641 45.7818C47.7641 41.2437 43.976 37.5514 39.3197 37.5514H37.0372C35.3926 37.5514 34.0546 36.2943 34.0546 34.7492C34.0546 33.2041 35.3926 31.947 37.0372 31.947H42.2539C46.9008 31.947 50.6814 28.2617 50.6814 23.7317C50.6814 21.4123 49.6885 19.3161 48.0966 17.8215H55.154V51.7072H45.1713V51.7073Z" fill="black"/>
<path d="M32.6207 7.29254C33.2356 7.29254 33.7341 6.77662 33.7341 6.1402C33.7341 5.50378 33.2356 4.98785 32.6207 4.98785C32.0058 4.98785 31.5073 5.50378 31.5073 6.1402C31.5073 6.77662 32.0058 7.29254 32.6207 7.29254Z" fill="black"/>
</g>
<defs>
<clipPath id="clip0_0_257">
<rect width="57.0048" height="59" fill="white" transform="translate(0.375977)"/>
</clipPath>
</defs>
</svg>
