<svg width="58" height="58" viewBox="0 0 58 58" fill="none" xmlns="http://www.w3.org/2000/svg">
<path d="M29.15 33.7392C28.2932 34.1375 27.3544 34.6566 25.475 35.7001C24.7624 36.1056 24.0178 36.5111 23.3248 36.8932C23.2767 36.8446 23.2269 36.7833 23.1788 36.7328C19.461 32.7137 12.5848 29.8752 12.8769 24.4773C12.9856 22.5111 13.6536 17.3493 26.0824 11.081C36.3112 5.9806 44.4505 7.39358 45.856 10.5277C47.8761 14.9956 41.4933 23.3095 30.9296 24.5152C29.7605 24.7551 28.553 24.7261 27.3964 24.4304C26.2398 24.1347 25.1637 23.5797 24.2476 22.8066C23.6882 22.1921 23.6045 22.156 23.3979 22.2786C23.0576 22.4588 23.2767 23.0157 23.3979 23.3347C23.8008 24.0728 24.346 24.7217 25.001 25.243C25.6561 25.7643 26.4079 26.1474 27.2118 26.3697C31.3689 27.2788 35.7032 26.8445 39.6033 25.128C46.0056 22.621 51.0042 15.6516 49.5399 9.80863C48.0703 3.88455 38.351 1.93088 29.1554 5.23626C23.3966 7.19965 18.076 10.2904 13.4968 14.3323C8.43053 19.1264 7.6289 23.2933 7.95668 25.0379C9.13597 31.2323 17.5762 35.264 20.9609 38.2503C20.7828 38.3495 20.6331 38.4306 20.4995 38.5081C18.8108 39.3569 12.3728 42.7614 10.7677 46.3624C8.94536 50.4427 11.0599 53.3678 12.4565 53.7607C14.5612 54.2708 16.7708 54.1031 18.7768 53.2811C20.7827 52.4591 22.4849 51.0238 23.6455 49.1757C24.6311 47.6432 25.2363 45.8925 25.4097 44.0726C25.583 42.2527 25.3194 40.4173 24.6413 38.7225C25.0414 38.3996 25.4681 38.112 25.9168 37.8629C26.779 37.3474 27.6002 36.8392 28.3288 36.4463C30.8234 35.2641 33.5458 34.6554 36.3006 34.6638C42.083 35.3523 43.2249 39.0019 43.0057 40.5392C42.9032 41.0847 42.6865 41.6016 42.37 42.0551C42.0535 42.5087 41.6446 42.8884 41.1709 43.1687C40.7701 43.4265 40.6365 43.513 40.6721 43.6968C40.7202 43.9672 40.9144 43.9545 41.2546 43.9059C42.1234 43.6281 42.8888 43.0909 43.4503 42.3649C44.0117 41.6389 44.343 40.7581 44.4006 39.8381C44.5787 36.2336 41.1816 32.2794 35.1676 32.3154C33.3668 32.3186 31.584 32.678 29.9196 33.3734C29.6524 33.4851 29.3929 33.6053 29.1411 33.7338L29.15 33.7392ZM20.5547 47.8673C18.6344 49.9813 15.9623 50.7798 14.8079 50.1039C13.561 49.383 14.0544 46.256 16.4112 44.0194C17.807 42.747 19.3157 41.6074 20.9182 40.6149C21.1978 40.4347 21.6111 40.1968 22.1081 39.894L22.2417 39.8201L22.5339 39.6399C22.9542 41.0657 22.9925 42.5789 22.6447 44.0245C22.2969 45.4702 21.5757 46.7964 20.5547 47.8673Z" fill="#CD6799"/>
</svg>
