<svg width="58" height="59" viewBox="0 0 58 59" fill="none" xmlns="http://www.w3.org/2000/svg">
<g clip-path="url(#clip0_0_278)">
<path d="M55.3245 59H2.60706C1.42323 59 0.463379 58.0066 0.463379 56.7813V2.21871C0.463379 0.993446 1.42323 0 2.60706 0H55.3241C56.5084 0 57.4682 0.993446 57.4682 2.21871V56.7808C57.4682 58.0066 56.5084 59 55.3245 59V59Z" fill="#F2F2F2"/>
<path d="M44.5362 48.4047C44.3161 48.4047 44.0961 48.3179 43.9282 48.1441L40.0427 44.1226C39.7065 43.7751 39.7065 43.2115 40.0427 42.8636C40.3784 42.5161 40.9234 42.5161 41.2591 42.8636L45.1446 46.8851C45.4804 47.2326 45.4804 47.7962 45.1446 48.1441C44.9763 48.3179 44.7563 48.4047 44.5362 48.4047V48.4047Z" fill="#426175"/>
<path d="M55.3245 0H49.1631C50.3474 0 51.3072 0.993446 51.3072 2.21871V56.7808C51.3072 58.0066 50.3474 59 49.1631 59H55.3245C56.5083 59 57.4682 58.0066 57.4682 56.7808V2.21871C57.4682 0.993446 56.5083 0 55.3245 0V0Z" fill="#CDD6DF"/>
<path d="M55.3245 0H2.60706C1.42323 0 0.463379 0.993446 0.463379 2.21871V8.83479H57.4682V2.21871C57.4682 0.993446 56.5084 0 55.3245 0V0Z" fill="#426175"/>
<path d="M26.3862 5.30753H5.43692C4.96156 5.30753 4.57666 4.90916 4.57666 4.41762C4.57666 3.92562 4.96156 3.52725 5.43692 3.52725H26.3866C26.8616 3.52725 27.2465 3.92562 27.2465 4.41762C27.2465 4.90916 26.8616 5.30753 26.3862 5.30753Z" fill="#F2F2F2"/>
<path d="M57.4682 8.83479V2.21871C57.4682 0.993446 56.5084 0 55.3245 0H49.1636C50.3478 0.000450134 51.3073 0.993446 51.3073 2.21871V8.83479H57.4682Z" fill="#2C4456"/>
<path d="M43.1795 4.41762C43.1795 5.0343 42.6968 5.5344 42.1005 5.5344C41.5047 5.5344 41.0215 5.0343 41.0215 4.41762C41.0215 3.80048 41.5047 3.30038 42.1005 3.30038C42.6968 3.30038 43.1795 3.80048 43.1795 4.41762V4.41762Z" fill="#FED066"/>
<path d="M48.3533 4.41762C48.3533 5.0343 47.8701 5.5344 47.2738 5.5344C46.678 5.5344 46.1948 5.0343 46.1948 4.41762C46.1948 3.80048 46.678 3.30038 47.2738 3.30038C47.8701 3.30038 48.3533 3.80048 48.3533 4.41762Z" fill="#FED066"/>
<path d="M53.5266 4.41762C53.5266 5.0343 53.0434 5.5344 52.4476 5.5344C51.8514 5.5344 51.3682 5.0343 51.3682 4.41762C51.3682 3.80048 51.8514 3.30038 52.4476 3.30038C53.0434 3.30038 53.5266 3.80048 53.5266 4.41762V4.41762Z" fill="#FED066"/>
<path d="M46.2146 31.3356C46.2146 41.23 38.4644 49.2514 28.9042 49.2514C19.3444 49.2514 11.5942 41.23 11.5942 31.3356C11.5942 21.4408 19.3444 13.4199 28.9042 13.4199C38.4644 13.4199 46.2146 21.4408 46.2146 31.3356V31.3356Z" fill="#33BCA5"/>
<path d="M42.6029 31.3356C42.6029 39.1657 36.4697 45.5135 28.904 45.5135C21.3387 45.5135 15.2056 39.1657 15.2056 31.3356C15.2056 23.5051 21.3387 17.1573 28.904 17.1573C36.4697 17.1573 42.6029 23.5051 42.6029 31.3356V31.3356Z" fill="#F2F2F2"/>
<path d="M38.591 21.3103C35.1274 17.725 30.2703 16.4623 25.8237 17.5197C28.2449 18.0954 30.5438 19.3581 32.4296 21.3103C37.7795 26.8469 37.7795 35.824 32.4296 41.3611C30.5438 43.3128 28.2449 44.5755 25.8237 45.1512C30.2703 46.2086 35.1269 44.9459 38.591 41.3611C43.9404 35.824 43.9404 26.8469 38.591 21.3103V21.3103Z" fill="#CDD6DF"/>
<path d="M54.3439 55.6303L52.3776 57.6658C51.9706 58.0871 51.3104 58.0871 50.9033 57.6658L42.8722 49.3532C42.4651 48.9318 42.4651 48.249 42.8722 47.8277L44.8384 45.7922C45.246 45.3708 45.9057 45.3708 46.3128 45.7922L54.3439 54.1043C54.751 54.5261 54.751 55.209 54.3439 55.6303Z" fill="#F5B556"/>
<path d="M23.3547 32.9665C23.3547 30.8527 19.6044 31.6764 19.6044 28.8104C19.6044 27.0427 21.0353 26.5174 22.27 26.5174C23.0198 26.5174 24.3702 26.7204 24.3702 27.3772C24.3702 27.6162 24.2084 28.0578 23.8622 28.0578C23.5508 28.0578 23.2507 27.604 22.27 27.604C21.4276 27.604 20.8274 27.9385 20.8274 28.6911C20.8274 30.4583 24.5776 29.658 24.5776 32.835C24.5776 34.5429 23.4699 35.3788 21.9469 35.3788C20.4469 35.3788 19.397 34.5667 19.397 33.9694C19.397 33.6831 19.6392 33.2888 19.9276 33.2888C20.3429 33.2888 20.6199 34.2323 21.9008 34.2323C22.7314 34.2323 23.3547 33.8262 23.3547 32.9665V32.9665Z" fill="#FD715C"/>
<path d="M27.555 30.4106H29.3316C29.5856 30.4106 29.7357 30.6496 29.7357 30.9242C29.7357 31.1511 29.6087 31.414 29.3316 31.414H27.555V34.1607H30.9821C31.2357 34.1607 31.3857 34.4236 31.3857 34.7342C31.3857 34.9966 31.2587 35.2833 30.9821 35.2833H26.8744C26.6086 35.2833 26.332 35.1402 26.332 34.8652V26.9711C26.332 26.6966 26.6086 26.5534 26.8744 26.5534H30.9821C31.2587 26.5534 31.3857 26.8397 31.3857 27.1026C31.3857 27.4132 31.2357 27.6761 30.9821 27.6761H27.555V30.4106Z" fill="#FD715C"/>
<path d="M32.7827 32.6915V29.2164C32.7827 27.2817 33.9017 26.5534 35.3674 26.5534C36.8213 26.5534 37.9634 27.2817 37.9634 29.2164V32.6915C37.9634 34.6261 36.8213 35.3549 35.3674 35.3549C33.9017 35.3549 32.7827 34.6261 32.7827 32.6915ZM36.7404 29.2164C36.7404 28.1654 36.2211 27.6761 35.367 27.6761C34.5019 27.6761 34.0057 28.1654 34.0057 29.2164V32.6915C34.0057 33.7425 34.5019 34.2323 35.367 34.2323C36.2211 34.2323 36.7404 33.7425 36.7404 32.6915V29.2164Z" fill="#FD715C"/>
<path d="M43.1795 4.41762C43.1795 5.0343 42.6968 5.5344 42.1005 5.5344C41.5047 5.5344 41.0215 5.0343 41.0215 4.41762C41.0215 3.80048 41.5047 3.30038 42.1005 3.30038C42.6968 3.30038 43.1795 3.80048 43.1795 4.41762V4.41762Z" fill="#46D1C0"/>
<path d="M48.3533 4.41762C48.3533 5.0343 47.8701 5.5344 47.2738 5.5344C46.678 5.5344 46.1948 5.0343 46.1948 4.41762C46.1948 3.80048 46.678 3.30038 47.2738 3.30038C47.8701 3.30038 48.3533 3.80048 48.3533 4.41762Z" fill="#46D1C0"/>
<path d="M53.5266 4.41762C53.5266 5.0343 53.0434 5.5344 52.4476 5.5344C51.8514 5.5344 51.3682 5.0343 51.3682 4.41762C51.3682 3.80048 51.8514 3.30038 52.4476 3.30038C53.0434 3.30038 53.5266 3.80048 53.5266 4.41762V4.41762Z" fill="#46D1C0"/>
</g>
<defs>
<clipPath id="clip0_0_278">
<rect width="57.0048" height="59" fill="white" transform="translate(0.463379)"/>
</clipPath>
</defs>
</svg>
