<svg width="26" height="26" viewBox="0 0 26 26" fill="none" xmlns="http://www.w3.org/2000/svg">
<path d="M3.25 22.75H5.41667V16.25H3.25V22.75Z" fill="white"/>
<path d="M13.4983 23.8333L10.3242 23.14L7.15 22.3925C6.96628 22.3567 6.80122 22.2569 6.68417 22.1108C6.5631 21.969 6.49765 21.7881 6.5 21.6017V17.2683C6.50307 17.0829 6.56787 16.9037 6.68417 16.7592C6.80516 16.6177 6.9685 16.5189 7.15 16.4775L12.3283 15.8383L17.5175 15.1883L17.68 15.795L17.8425 16.3908C17.8454 16.5906 17.7888 16.7867 17.68 16.9542C17.5804 17.1293 17.4291 17.2694 17.2467 17.355L15.08 17.8967L12.9133 18.4383L14.6683 19.1533L16.4342 19.8575L18.8933 19.1642L21.2875 18.4167C21.5003 18.3629 21.7256 18.394 21.9158 18.5033C22.0116 18.5551 22.0957 18.626 22.1628 18.7118C22.23 18.7975 22.2786 18.8962 22.3058 19.0017L22.5117 19.8358L22.7283 20.6592C22.7775 20.8651 22.7465 21.0819 22.6417 21.2658C22.5302 21.4514 22.3519 21.5871 22.1433 21.645L18.2108 22.7283L14.2783 23.8117C14.1489 23.8282 14.0178 23.8282 13.8883 23.8117C13.7604 23.8403 13.6286 23.8476 13.4983 23.8333V23.8333Z" fill="white"/>
<path d="M9.74999 4.33334L7.58332 6.5L5.41666 8.66667L7.58332 10.8333L9.74999 13L10.5083 12.2417L11.2667 11.4833L9.85832 10.075L8.44999 8.66667L9.85832 7.25834L11.2667 5.85L10.5083 5.09167L9.74999 4.33334Z" fill="white"/>
<path d="M16.25 4.33334L15.4917 5.09167L14.7333 5.85L16.1417 7.25834L17.55 8.66667L16.1417 10.075L14.7333 11.4833L15.4917 12.2417L16.25 13L18.4167 10.8333L20.5833 8.66667L18.4167 6.5L16.25 4.33334V4.33334Z" fill="white"/>
</svg>
