<svg width="25" height="25" viewBox="0 0 25 25" fill="none" xmlns="http://www.w3.org/2000/svg">
<path d="M20.9904 6.48584L17.6221 9.75383L6.70893 20.23C5.94326 20.965 4.81223 20.1977 4.96699 19.0482L5.04402 18.4761C5.09343 18.109 5.27701 17.786 5.54619 17.5924L20.9904 6.48584Z" fill="white"/>
<path d="M21.4222 21.2266C21.6896 21.2933 21.6504 21.782 21.3776 21.782L5.91813 20.6833C5.26658 20.637 4.797 19.8891 4.92004 19.0937L5.00971 18.5139C5.12275 17.7831 5.69412 17.3068 6.28196 17.4533L21.4222 21.2266Z" fill="white"/>
<path d="M17.188 5.298C16.7299 5.23409 16.3985 4.77332 16.5439 4.29622C16.724 3.70521 17.0107 3.15586 17.3901 2.68178C17.9536 1.97764 18.6963 1.47116 19.5245 1.22639C20.3524 0.981629 21.2286 1.00957 22.0419 1.30669C22.8553 1.60381 23.5696 2.15676 24.0942 2.89561C24.6189 3.63445 24.9305 4.52603 24.9896 5.45757C25.0486 6.38914 24.8524 7.31881 24.426 8.12909C23.9995 8.93934 23.3619 9.59378 22.5937 10.0096C22.0765 10.2896 21.5156 10.453 20.9446 10.4936C20.4839 10.5264 20.1577 10.0612 20.2164 9.56264C20.2751 9.06406 20.7013 8.72633 21.1553 8.63325C21.3947 8.58413 21.6282 8.49925 21.8487 8.37985C22.3207 8.12432 22.7126 7.7222 22.9746 7.22434C23.2367 6.72649 23.3571 6.15525 23.3209 5.58286C23.2845 5.01047 23.0931 4.46265 22.7708 4.00865C22.4484 3.55467 22.0096 3.21491 21.5097 3.03235C21.01 2.84979 20.4717 2.83262 19.9629 2.98301C19.4541 3.1334 18.9976 3.44462 18.6515 3.87726C18.4896 4.07943 18.3554 4.30388 18.2512 4.54369C18.0539 4.99819 17.6462 5.36191 17.188 5.298Z" fill="white"/>
<path d="M4.34828 7.82275C3.90491 7.79704 3.89246 7.20471 4.33443 7.16344L19.926 5.78299C20.5871 5.72446 21.1482 6.22076 21.1061 6.82661L21.0384 7.80299C21.0006 8.34634 20.4882 8.75886 19.8938 8.72439L4.34828 7.82275Z" fill="white"/>
</svg>
