<svg width="22" height="22" viewBox="0 0 22 22" fill="none" xmlns="http://www.w3.org/2000/svg">
<path d="M17.4402 6.55945C16.5944 6.37204 15.8292 5.91946 15.2545 5.26666C14.6798 4.61386 14.3252 3.7944 14.2414 2.92587V2.54968H11.3141V14.237C11.3147 14.7556 11.1533 15.2612 10.8529 15.6823C10.5525 16.1033 10.1282 16.4184 9.6401 16.583C9.15204 16.7476 8.62497 16.7532 8.13354 16.5992C7.64212 16.4451 7.21125 16.1392 6.90199 15.7246C6.62491 15.3577 6.45525 14.92 6.41218 14.461C6.36911 14.002 6.45436 13.54 6.65828 13.1273C6.86221 12.7145 7.17667 12.3675 7.56611 12.1255C7.95554 11.8834 8.40443 11.756 8.86199 11.7576C9.11504 11.7562 9.36683 11.7936 9.60865 11.8688V8.8764C9.32724 8.84128 9.04365 8.827 8.76017 8.83365C7.71595 8.86177 6.70252 9.1961 5.844 9.79571C4.98547 10.3953 4.3191 11.2342 3.9265 12.2096C3.53389 13.185 3.43209 14.2546 3.63355 15.2874C3.83501 16.3202 4.331 17.2714 5.06077 18.0245C5.8087 18.7907 6.7658 19.3156 7.81045 19.5325C8.85511 19.7493 9.94017 19.6484 10.9278 19.2425C11.9153 18.8365 12.7609 18.1439 13.3569 17.2527C13.953 16.3614 14.2727 15.3117 14.2753 14.237V8.25228C15.456 9.10207 16.8717 9.55665 18.3226 9.55182V6.64495C18.0376 6.64613 17.7532 6.61748 17.4741 6.55945H17.4402Z" fill="#090A13"/>
</svg>
