<svg width="22" height="22" viewBox="0 0 22 22" fill="none" xmlns="http://www.w3.org/2000/svg">
<path d="M20.9093 5.06068C20.2008 5.37701 19.4397 5.59075 18.6396 5.68736C19.4651 5.1896 20.0828 4.40617 20.3773 3.48327C19.6016 3.94751 18.7527 4.27428 17.8674 4.44938C17.2721 3.8089 16.4836 3.38437 15.6243 3.24172C14.765 3.09907 13.883 3.24627 13.1153 3.66046C12.3475 4.07466 11.7369 4.73268 11.3784 5.53236C11.0198 6.33204 10.9332 7.22864 11.1322 8.08297C9.5605 8.00345 8.023 7.59183 6.61943 6.87482C5.21586 6.15781 3.9776 5.15144 2.98501 3.92101C2.64562 4.51093 2.45046 5.1949 2.45046 5.92333C2.45009 6.57908 2.61035 7.22479 2.91703 7.80316C3.22371 8.38154 3.66733 8.87469 4.20852 9.23887C3.58088 9.21875 2.96708 9.04786 2.41822 8.74043V8.79173C2.41816 9.71145 2.73389 10.6029 3.31183 11.3147C3.88978 12.0266 4.69434 12.515 5.58901 12.6972C5.00676 12.856 4.39633 12.8794 3.8038 12.7656C4.05622 13.557 4.54791 14.249 5.21005 14.7448C5.87218 15.2406 6.67161 15.5153 7.4964 15.5305C6.09626 16.6381 4.3671 17.2388 2.58707 17.2362C2.27176 17.2363 1.95671 17.2177 1.64355 17.1806C3.45038 18.3512 5.55366 18.9725 7.70174 18.97C14.9733 18.97 18.9484 12.9015 18.9484 7.63839C18.9484 7.46739 18.9442 7.29469 18.9365 7.1237C19.7097 6.56026 20.3772 5.86254 20.9076 5.06324L20.9093 5.06068Z" fill="#090A13"/>
</svg>
