<svg width="58" height="59" viewBox="0 0 58 59" fill="none" xmlns="http://www.w3.org/2000/svg">
<g clip-path="url(#clip0_11_26)">
<path d="M20.1519 46.7852H36.8525V57.2715H20.1519V46.7852Z" fill="#D8DBF0"/>
<path d="M28.5024 46.7852H36.8528V57.2715H28.5024V46.7852Z" fill="#B8B8D9"/>
<path d="M57.0048 8.75781V46.7852C57.0048 47.753 56.2701 48.5137 55.3348 48.5137H1.67006C0.734717 48.5137 0 47.753 0 46.7852V8.75781C0 7.78973 0.734717 7.0293 1.67006 7.0293H55.3348C56.2701 7.0293 57.0048 7.78973 57.0048 8.75781Z" fill="#664D99"/>
<path d="M57.0049 8.75781V46.7852C57.0049 47.753 56.2701 48.5137 55.3348 48.5137H28.5024V7.0293H55.3348C56.2701 7.0293 57.0049 7.78973 57.0049 8.75781Z" fill="#4D4573"/>
<path d="M3.34033 10.4863H53.6649V45.0566H3.34033V10.4863Z" fill="#FFE666"/>
<path d="M43.5328 57.2715C43.5328 58.2393 42.7981 59 41.8628 59H15.1417C14.2064 59 13.4717 58.2393 13.4717 57.2715C13.4717 56.3034 14.2064 55.543 15.1417 55.543H41.8628C42.7981 55.543 43.5328 56.3034 43.5328 57.2715Z" fill="#F3F5F9"/>
<path d="M43.533 57.2715C43.533 58.2393 42.7983 59 41.8629 59H28.5024V55.543H41.8629C42.7983 55.543 43.533 56.3034 43.533 57.2715Z" fill="#D8DBF0"/>
<path d="M28.5024 10.4863H53.6647V45.0566H28.5024V10.4863Z" fill="#FFC44D"/>
<path d="M50.3245 13.9434V39.8711C50.3245 40.8389 49.5898 41.5996 48.6544 41.5996H8.35024C7.41489 41.5996 6.68018 40.8389 6.68018 39.8711V13.9434L10.0203 10.4863H46.9844L50.3245 13.9434Z" fill="#F3F5F9"/>
<path d="M50.3246 13.9434V39.8711C50.3246 40.8389 49.5899 41.5996 48.6545 41.5996H28.5024V10.4863H46.9845L50.3246 13.9434Z" fill="#D8DBF0"/>
<path d="M25.1621 24.3145H15.1417C14.2186 24.3145 13.4717 23.5413 13.4717 22.5859C13.4717 21.6305 14.2186 20.8574 15.1417 20.8574H25.1621C26.0852 20.8574 26.8322 21.6305 26.8322 22.5859C26.8322 23.5413 26.0852 24.3145 25.1621 24.3145Z" fill="#B8B8D9"/>
<path d="M25.1621 31.2285H15.1417C14.2186 31.2285 13.4717 30.4554 13.4717 29.5C13.4717 28.5446 14.2186 27.7715 15.1417 27.7715H25.1621C26.0852 27.7715 26.8322 28.5446 26.8322 29.5C26.8322 30.4554 26.0852 31.2285 25.1621 31.2285Z" fill="#B8B8D9"/>
<path d="M40.6824 34.1791L37.3423 30.722C36.6899 30.0469 36.6899 28.953 37.3423 28.2778C37.9946 27.6027 39.0515 27.6027 39.7038 28.2778L43.044 31.7348C43.6963 32.41 43.6963 33.5039 43.044 34.1791C42.3915 34.8543 41.3347 34.8543 40.6824 34.1791Z" fill="#4D4573"/>
<path d="M34.7978 34.6399C34.2368 34.5015 33.7801 34.0728 33.5975 33.504L30.2574 23.1329C30.0584 22.5116 30.2149 21.8263 30.6618 21.3638C31.112 20.9047 31.7741 20.7375 32.3711 20.9469L42.3915 24.4039C42.9395 24.593 43.357 25.0622 43.4875 25.6462C43.6212 26.2286 43.4549 26.8413 43.0439 27.2651L36.3637 34.1791C35.9607 34.596 35.3744 34.7778 34.7978 34.6399V34.6399Z" fill="#4D4573"/>
<path d="M50.3245 1.72852V13.9434H6.68018V1.72852C6.68018 0.760432 7.41489 0 8.35024 0H48.6544C49.5898 0 50.3245 0.760432 50.3245 1.72852Z" fill="#FF66E5"/>
<path d="M50.3246 1.72852V13.9434H28.5024V0H48.6545C49.5899 0 50.3246 0.760432 50.3246 1.72852Z" fill="#E645B1"/>
<path d="M15.1417 8.75781C16.0641 8.75781 16.8118 7.98393 16.8118 7.0293C16.8118 6.07466 16.0641 5.30078 15.1417 5.30078C14.2194 5.30078 13.4717 6.07466 13.4717 7.0293C13.4717 7.98393 14.2194 8.75781 15.1417 8.75781Z" fill="#F3F5F9"/>
<path d="M21.8219 8.75781C22.7443 8.75781 23.492 7.98393 23.492 7.0293C23.492 6.07466 22.7443 5.30078 21.8219 5.30078C20.8996 5.30078 20.1519 6.07466 20.1519 7.0293C20.1519 7.98393 20.8996 8.75781 21.8219 8.75781Z" fill="#F3F5F9"/>
<path d="M28.5021 8.75781C29.4244 8.75781 30.1722 7.98393 30.1722 7.0293C30.1722 6.07466 29.4244 5.30078 28.5021 5.30078C27.5797 5.30078 26.832 6.07466 26.832 7.0293C26.832 7.98393 27.5797 8.75781 28.5021 8.75781Z" fill="#F3F5F9"/>
<path d="M30.1725 7.0293C30.1725 7.99715 29.4378 8.75781 28.5024 8.75781V5.30078C29.4378 5.30078 30.1725 6.06121 30.1725 7.0293Z" fill="#D8DBF0"/>
</g>
<defs>
<clipPath id="clip0_11_26">
<rect width="57.0048" height="59" fill="white"/>
</clipPath>
</defs>
</svg>
